<svg width="24" height="24" viewBox="0 0 24 24" fill="none" xmlns="http://www.w3.org/2000/svg">
<path fill-rule="evenodd" clip-rule="evenodd" d="M13.2789 19.2982L12 20.4149L10.7211 19.2982C6.15316 15.3095 3.83333 11.7799 3.83333 8.50016C3.83333 3.85848 7.45408 0.333496 12 0.333496C16.5459 0.333496 20.1667 3.85848 20.1667 8.50016C20.1667 11.7799 17.8468 15.3095 13.2789 19.2982ZM4.63314 15.2708C5.11216 15.9266 5.64577 16.5937 6.23372 17.2723C4.06112 17.7616 2.66667 18.4561 2.66667 19.0002C2.66667 19.9416 6.84233 21.3335 12 21.3335C17.1577 21.3335 21.3333 19.9416 21.3333 19.0002C21.3333 18.4561 19.9389 17.7616 17.7663 17.2723C18.3542 16.5937 18.8878 15.9266 19.3669 15.2708C21.9905 16.0669 23.6667 17.3439 23.6667 19.0002C23.6667 21.9247 18.4403 23.6668 12 23.6668C5.55969 23.6668 0.333332 21.9247 0.333332 19.0002C0.333332 17.3439 2.00953 16.0669 4.63314 15.2708ZM12 2.66683C15.271 2.66683 17.8333 5.16135 17.8333 8.50016C17.8333 10.8883 15.9348 13.827 12 17.3155C8.06521 13.827 6.16667 10.8883 6.16667 8.50016C6.16667 5.16135 8.72895 2.66683 12 2.66683ZM12 5.00016C13.933 5.00016 15.5 6.56717 15.5 8.50016C15.5 10.4332 13.933 12.0002 12 12.0002C10.067 12.0002 8.5 10.4332 8.5 8.50016C8.5 6.56717 10.067 5.00016 12 5.00016ZM10.8333 8.50016C10.8333 7.85583 11.3557 7.3335 12 7.3335C12.6443 7.3335 13.1667 7.85583 13.1667 8.50016C13.1667 9.1445 12.6443 9.66683 12 9.66683C11.3557 9.66683 10.8333 9.1445 10.8333 8.50016Z" fill="#373C9E"/>
</svg>
