<svg width="20" height="21" viewBox="0 0 20 21" fill="none" xmlns="http://www.w3.org/2000/svg">
<path d="M15.3125 18.8965L16.2708 17.9381L12.5625 14.2298L11.6042 15.1881C11.0903 15.702 10.8333 16.3201 10.8333 17.0423C10.8333 17.7645 11.0903 18.3826 11.6042 18.8965C12.1181 19.4104 12.7361 19.6673 13.4583 19.6673C14.1806 19.6673 14.7986 19.4104 15.3125 18.8965ZM17.4375 16.7715L18.3958 15.8131C18.9097 15.2993 19.1667 14.6812 19.1667 13.959C19.1667 13.2368 18.9097 12.6187 18.3958 12.1048C17.8819 11.5909 17.2639 11.334 16.5417 11.334C15.8194 11.334 15.2014 11.5909 14.6875 12.1048L13.7292 13.0631L17.4375 16.7715ZM5.83333 8.00065H14.1667V6.33398H5.83333V8.00065ZM10 4.04232C10.1806 4.04232 10.33 3.98315 10.4483 3.86482C10.5667 3.74648 10.6256 3.59732 10.625 3.41732C10.6244 3.23732 10.5653 3.08815 10.4475 2.96982C10.3297 2.85148 10.1806 2.79232 10 2.79232C9.81944 2.79232 9.67028 2.85148 9.5525 2.96982C9.43472 3.08815 9.37556 3.23732 9.375 3.41732C9.37444 3.59732 9.43361 3.74676 9.5525 3.86565C9.67139 3.98454 9.82056 4.04343 10 4.04232ZM9.27083 18.0006H4.16667C3.70833 18.0006 3.31611 17.8376 2.99 17.5115C2.66389 17.1854 2.50056 16.7929 2.5 16.334V4.66732C2.5 4.20898 2.66333 3.81676 2.99 3.49065C3.31667 3.16454 3.70889 3.00121 4.16667 3.00065H7.66667C7.84722 2.50065 8.14944 2.09787 8.57333 1.79232C8.99722 1.48676 9.47278 1.33398 10 1.33398C10.5272 1.33398 11.0031 1.48676 11.4275 1.79232C11.8519 2.09787 12.1539 2.50065 12.3333 3.00065H15.8333C16.2917 3.00065 16.6842 3.16398 17.0108 3.49065C17.3375 3.81732 17.5006 4.20954 17.5 4.66732V9.77148C16.9167 9.6326 16.3369 9.62204 15.7608 9.73982C15.1847 9.85759 14.6533 10.0768 14.1667 10.3973V9.66732H5.83333V11.334H13.1042L11.4375 13.0007H5.83333V14.6673H9.89583C9.57639 15.1534 9.3575 15.6848 9.23917 16.2615C9.12083 16.8382 9.13167 17.4179 9.27167 18.0006" fill="#667085"/>
</svg>
