<svg width="12" height="12" viewBox="0 0 12 12" fill="none" xmlns="http://www.w3.org/2000/svg">
<path d="M11.0931 5.24849L2.71565 5.25102L6.37455 1.58991C6.66696 1.29732 6.66681 0.817324 6.37422 0.524913C6.08164 0.232501 5.60914 0.232643 5.31672 0.525232L0.375715 5.46922C0.0833031 5.76181 0.0834456 6.23431 0.376034 6.52672L5.31253 11.4752C5.45269 11.6156 5.64295 11.6945 5.84134 11.6944C6.03973 11.6944 6.22995 11.6154 6.37003 11.4749C6.66244 11.1823 6.6623 10.7098 6.36971 10.4174L2.7161 6.75102L11.0936 6.74849C11.5061 6.74836 11.8435 6.41076 11.8434 5.99826C11.8433 5.58576 11.5056 5.24837 11.0931 5.24849Z" fill="#15223B"/>
</svg>
