<svg width="20" height="20" viewBox="0 0 20 20" fill="none" xmlns="http://www.w3.org/2000/svg">
<path d="M10.5 1.83317C10.3558 1.72499 10.1803 1.6665 10 1.6665C9.81969 1.6665 9.64425 1.72499 9.5 1.83317C9.15283 2.09915 8.83268 2.39865 8.54417 2.72734C8.10833 3.21817 7.5 4.04567 7.5 4.99984C7.5 5.66288 7.76339 6.29876 8.23223 6.7676C8.70107 7.23645 9.33696 7.49984 10 7.49984H5C4.33696 7.49984 3.70107 7.76323 3.23223 8.23207C2.76339 8.70091 2.5 9.3368 2.5 9.99984V11.6665C2.5 12.6965 3.67583 13.2848 4.5 12.6665L5.05583 12.2498C5.20008 12.1417 5.37552 12.0832 5.55583 12.0832C5.73614 12.0832 5.91159 12.1417 6.05583 12.2498L6.2775 12.4165C6.71024 12.7411 7.23657 12.9165 7.7775 12.9165C8.31843 12.9165 8.84476 12.7411 9.2775 12.4165L9.5 12.2498C9.64425 12.1417 9.81969 12.0832 10 12.0832C10.1803 12.0832 10.3558 12.1417 10.5 12.2498L10.7225 12.4165C11.1552 12.7411 11.6816 12.9165 12.2225 12.9165C12.7634 12.9165 13.2898 12.7411 13.7225 12.4165L13.9442 12.2498C14.0884 12.1417 14.2639 12.0832 14.4442 12.0832C14.6245 12.0832 14.7999 12.1417 14.9442 12.2498L15.5 12.6665C16.3242 13.2848 17.5 12.6965 17.5 11.6665V9.99984C17.5 9.3368 17.2366 8.70091 16.7678 8.23207C16.2989 7.76323 15.663 7.49984 15 7.49984H10C10.663 7.49984 11.2989 7.23645 11.7678 6.7676C12.2366 6.29876 12.5 5.66288 12.5 4.99984C12.5 4.04567 11.8917 3.21817 11.4558 2.72734C11.1675 2.40234 10.8475 2.094 10.5 1.83317ZM3.33333 14.5123V16.6665C3.33333 17.1085 3.50893 17.5325 3.82149 17.845C4.13405 18.1576 4.55797 18.3332 5 18.3332H15C15.442 18.3332 15.8659 18.1576 16.1785 17.845C16.4911 17.5325 16.6667 17.1085 16.6667 16.6665V14.5123C16.4727 14.5824 16.2643 14.6027 16.0605 14.5714C15.8567 14.5401 15.664 14.4582 15.5 14.3332L14.9442 13.9165C14.7999 13.8083 14.6245 13.7498 14.4442 13.7498C14.2639 13.7498 14.0884 13.8083 13.9442 13.9165L13.7225 14.0832C13.2898 14.4077 12.7634 14.5832 12.2225 14.5832C11.6816 14.5832 11.1552 14.4077 10.7225 14.0832L10.5 13.9165C10.3558 13.8083 10.1803 13.7498 10 13.7498C9.81969 13.7498 9.64425 13.8083 9.5 13.9165L9.2775 14.0832C8.84476 14.4077 8.31843 14.5832 7.7775 14.5832C7.23657 14.5832 6.71024 14.4077 6.2775 14.0832L6.05583 13.9165C5.91159 13.8083 5.73614 13.7498 5.55583 13.7498C5.37552 13.7498 5.20008 13.8083 5.05583 13.9165L4.5 14.3332C4.33601 14.4582 4.1433 14.5401 3.93949 14.5714C3.73568 14.6027 3.52727 14.5824 3.33333 14.5123Z" fill="#3C3C3C"/>
</svg>
