<svg width="27" height="30" viewBox="0 0 27 30" fill="none" xmlns="http://www.w3.org/2000/svg">
<g clip-path="url(#clip0_683_3042)">
<path d="M23.5089 26.4867H3.2867V10.5367H23.5089M19.1756 0.386719V3.28672H7.62003V0.386719H4.73114V3.28672H3.2867C1.68337 3.28672 0.397812 4.57722 0.397812 6.18672V26.4867C0.397812 27.2558 0.702176 27.9935 1.24395 28.5373C1.78572 29.0812 2.52052 29.3867 3.2867 29.3867H23.5089C24.2751 29.3867 25.0099 29.0812 25.5517 28.5373C26.0934 27.9935 26.3978 27.2558 26.3978 26.4867V6.18672C26.3978 5.41759 26.0934 4.67996 25.5517 4.13611C25.0099 3.59225 24.2751 3.28672 23.5089 3.28672H22.0645V0.386719M20.62 16.3367H13.3978V23.5867H20.62V16.3367Z" fill="white"/>
</g>
<defs>
<clipPath id="clip0_683_3042">
<rect width="26" height="29" fill="white" transform="translate(0.397812 0.386719)"/>
</clipPath>
</defs>
</svg>
