<svg width="28" height="17" viewBox="0 0 28 17" fill="none" xmlns="http://www.w3.org/2000/svg">
<path d="M8.22242 0.952182C8.86446 0.367921 9.72571 0.0409474 10.6224 0.0410156H23.4937C24.2412 0.0410156 25.1112 0.234682 25.8224 0.646516C26.5462 1.06418 27.2099 1.78285 27.2099 2.81185V14.1868C27.2099 15.2158 26.5462 15.9333 25.8224 16.3522C25.1186 16.7458 24.3141 16.9549 23.4937 16.9577H10.6224C9.72571 16.9578 8.86446 16.6308 8.22242 16.0465L1.53492 9.96118C1.3259 9.77097 1.15978 9.54364 1.04636 9.29258C0.932943 9.04152 0.874512 8.77181 0.874512 8.49935C0.874512 8.22688 0.932943 7.95718 1.04636 7.70612C1.15978 7.45506 1.3259 7.22772 1.53492 7.03752L8.22242 0.952182ZM16.5374 5.54768C16.4516 5.46171 16.3481 5.39276 16.2331 5.34494C16.1181 5.29711 15.9939 5.2714 15.8681 5.26932C15.7422 5.26725 15.6172 5.28886 15.5004 5.33287C15.3837 5.37688 15.2776 5.44238 15.1886 5.52547C15.0996 5.60856 15.0294 5.70753 14.9823 5.81648C14.9351 5.92544 14.912 6.04214 14.9142 6.15962C14.9164 6.27711 14.944 6.39298 14.9952 6.50031C15.0464 6.60764 15.1203 6.70424 15.2124 6.78435L17.0499 8.49935L15.2124 10.2143C15.1203 10.2945 15.0464 10.3911 14.9952 10.4984C14.944 10.6057 14.9164 10.7216 14.9142 10.8391C14.912 10.9566 14.9351 11.0733 14.9823 11.1822C15.0294 11.2912 15.0996 11.3901 15.1886 11.4732C15.2776 11.5563 15.3837 11.6218 15.5004 11.6658C15.6172 11.7098 15.7422 11.7314 15.8681 11.7294C15.9939 11.7273 16.1181 11.7016 16.2331 11.6538C16.3481 11.6059 16.4516 11.537 16.5374 11.451L18.3749 9.73602L20.2124 11.451C20.2982 11.537 20.4017 11.6059 20.5167 11.6538C20.6317 11.7016 20.7559 11.7273 20.8818 11.7294C21.0076 11.7314 21.1327 11.7098 21.2494 11.6658C21.3661 11.6218 21.4722 11.5563 21.5612 11.4732C21.6502 11.3901 21.7204 11.2912 21.7676 11.1822C21.8147 11.0733 21.8379 10.9566 21.8357 10.8391C21.8334 10.7216 21.8059 10.6057 21.7546 10.4984C21.7034 10.3911 21.6295 10.2945 21.5374 10.2143L19.6999 8.49935L21.5374 6.78435C21.6295 6.70424 21.7034 6.60764 21.7546 6.50031C21.8059 6.39298 21.8334 6.27711 21.8357 6.15962C21.8379 6.04214 21.8147 5.92544 21.7676 5.81648C21.7204 5.70753 21.6502 5.60856 21.5612 5.52547C21.4722 5.44238 21.3661 5.37688 21.2494 5.33287C21.1327 5.28886 21.0076 5.26725 20.8818 5.26932C20.7559 5.2714 20.6317 5.29711 20.5167 5.34494C20.4017 5.39276 20.2982 5.46171 20.2124 5.54768L18.3749 7.26268L16.5374 5.54768Z" fill="#373C9E"/>
</svg>
