<svg width="48" height="36" viewBox="0 0 48 36" fill="none" xmlns="http://www.w3.org/2000/svg">
<path d="M33.5291 7.33771C33.3533 7.33807 33.1813 7.28626 33.0349 7.18884C32.8885 7.09141 32.7743 6.95275 32.7067 6.7904C32.6398 6.62808 32.6224 6.44957 32.6568 6.27738C32.6911 6.10519 32.7758 5.94704 32.8999 5.8229C33.024 5.69859 33.1822 5.61396 33.3545 5.57975C33.5268 5.54555 33.7053 5.56332 33.8674 5.63081C34.0298 5.69798 34.1686 5.81193 34.266 5.95816C34.3635 6.1044 34.4153 6.27632 34.4148 6.45206C34.4147 6.68692 34.3213 6.91215 34.1553 7.07823C33.9892 7.2443 33.764 7.33764 33.5291 7.33771ZM31.8588 10.4213C31.6237 10.4211 31.3984 10.3276 31.2323 10.1614C31.0661 9.99521 30.9727 9.76986 30.9725 9.53484C30.9726 9.29977 31.066 9.07434 31.2322 8.90807C31.3983 8.7418 31.6237 8.64828 31.8588 8.64806C32.0939 8.64806 32.3195 8.74144 32.4858 8.90767C32.6521 9.07391 32.7457 9.29939 32.7458 9.53456C32.7457 9.76972 32.6523 9.99524 32.486 10.1615C32.3197 10.3278 32.0939 10.4213 31.8588 10.4213ZM34.5036 10.3181C34.3854 10.3211 34.2678 10.3004 34.1577 10.2572C34.0476 10.214 33.9473 10.1492 33.8626 10.0667C33.7779 9.98412 33.7106 9.88544 33.6647 9.77647C33.6188 9.6675 33.5951 9.55044 33.5951 9.43218C33.5951 9.31392 33.6188 9.19686 33.6647 9.08789C33.7106 8.97892 33.7779 8.88025 33.8626 8.79769C33.9473 8.71513 34.0476 8.65034 34.1577 8.60716C34.2678 8.56398 34.3854 8.54327 34.5036 8.54625C34.62 8.54617 34.7353 8.56904 34.8429 8.61355C34.9505 8.65805 35.0482 8.72333 35.1305 8.80563C35.2129 8.88793 35.2782 8.98566 35.3227 9.09321C35.3673 9.20077 35.3902 9.31605 35.3901 9.43246C35.3894 9.6673 35.2957 9.89229 35.1296 10.0583C34.9635 10.2243 34.7385 10.3175 34.5036 10.3181ZM31.8588 13.2001C31.683 13.2001 31.5111 13.1481 31.3649 13.0504C31.2188 12.9528 31.1048 12.814 31.0375 12.6517C30.9703 12.4895 30.9527 12.311 30.9869 12.1388C31.0212 11.9666 31.1058 11.8084 31.2299 11.6843C31.3541 11.5602 31.5123 11.4757 31.6845 11.4415C31.8567 11.4073 32.0352 11.425 32.1974 11.4923C32.3599 11.5595 32.4988 11.6734 32.5964 11.8196C32.694 11.9658 32.746 12.1378 32.7458 12.3136C32.7452 12.5486 32.6516 12.7738 32.4854 12.9399C32.3192 13.106 32.0937 13.1996 31.8588 13.2001ZM34.5036 13.3013C34.2685 13.3028 34.0423 13.211 33.8748 13.046C33.7073 12.8809 33.6121 12.6562 33.6101 12.421C33.6073 12.3035 33.628 12.1865 33.6708 12.077C33.7137 11.9675 33.7779 11.8677 33.8598 11.7832C33.9416 11.6988 34.0394 11.6315 34.1475 11.5853C34.2556 11.539 34.3719 11.5148 34.4895 11.5139C34.607 11.513 34.7236 11.5355 34.8324 11.5802C34.9412 11.6248 35.04 11.6906 35.1231 11.7738C35.2062 11.857 35.2719 11.9559 35.3164 12.0648C35.3609 12.1736 35.3833 12.2902 35.3823 12.4078C35.383 12.6425 35.2911 12.8679 35.1265 13.0352C34.9619 13.2025 34.7383 13.2983 34.5036 13.3013ZM24.7026 13.2656C24.3948 13.2657 24.09 13.2052 23.8056 13.0874C23.5212 12.9697 23.2628 12.7971 23.0452 12.5794C22.8275 12.3618 22.6549 12.1034 22.5371 11.819C22.4194 11.5346 22.3589 11.2298 22.359 10.922C22.359 10.6142 22.4196 10.3094 22.5375 10.025C22.6553 9.74066 22.828 9.48232 23.0458 9.26475C23.2635 9.04718 23.522 8.87464 23.8064 8.757C24.0908 8.63936 24.3957 8.57893 24.7035 8.57915C25.9972 8.57915 27.0463 9.63018 27.0452 10.9242C27.0448 11.5455 26.7977 12.1411 26.3582 12.5802C25.9187 13.0193 25.3239 13.2658 24.7026 13.2656ZM33.4782 16.3321C33.3618 16.3319 33.2466 16.3088 33.1392 16.2641C33.0318 16.2194 32.9342 16.1539 32.8521 16.0715C32.7699 15.9891 32.7048 15.8913 32.6605 15.7837C32.6161 15.6761 32.5934 15.5608 32.5937 15.4445C32.5916 15.3268 32.6131 15.2099 32.6567 15.1005C32.7004 14.9912 32.7654 14.8917 32.8479 14.8078C32.9305 14.7239 33.0289 14.6572 33.1375 14.6118C33.2461 14.5663 33.3626 14.543 33.4803 14.543C33.598 14.5431 33.7145 14.5666 33.823 14.6122C33.9316 14.6578 34.0299 14.7246 34.1123 14.8086C34.1948 14.8926 34.2597 14.9922 34.3032 15.1016C34.3467 15.211 34.368 15.3279 34.3658 15.4456C34.3655 15.6808 34.2719 15.9062 34.1054 16.0724C33.939 16.2386 33.7134 16.3322 33.4782 16.3321ZM24.7701 21.7436C19.9284 21.7459 15.6748 18.5301 14.3554 13.8714C13.0369 9.21281 14.9733 4.71846 19.0973 2.18046C23.221 -0.356418 28.529 0.155175 32.0919 3.43314L29.5328 5.6474C26.6888 3.08043 22.321 3.22949 19.659 5.9849C16.9964 8.7389 16.9964 13.109 19.659 15.8644C22.3207 18.6189 26.6888 18.7688 29.5328 16.2007L32.0922 18.8875C30.0973 20.7262 27.4831 21.7457 24.7701 21.7436ZM28.5712 29.4887V23.322L29.6689 23.1687V29.4876L28.5712 29.4887ZM25.0393 25.1096V28.1671C25.0393 28.4025 25.1388 28.5156 25.3875 28.5156C25.7906 28.4713 26.1808 28.3468 26.535 28.1494V25.1096H27.6316V29.4876H26.7957L26.688 29.1202C26.1419 29.3934 25.5448 29.5495 24.9349 29.5787C24.2068 29.5787 23.9463 29.0671 23.9463 28.2835V25.1099L25.0393 25.1096ZM21.6412 29.579C21.1277 29.5709 20.6182 29.4859 20.1298 29.327L20.2831 28.4914C20.7078 28.6123 21.1465 28.677 21.5869 28.6812C22.0727 28.6812 22.1438 28.5724 22.1438 28.2408C22.1438 27.9708 22.0904 27.8344 21.3805 27.6634C20.3106 27.4027 20.1841 27.1332 20.1841 26.2886C20.1841 25.4075 20.5725 25.0216 21.8198 25.0216C22.2625 25.0216 22.7035 25.0733 23.1338 25.1743L23.025 26.0456C22.6279 25.9704 22.2253 25.9276 21.8212 25.9177C21.3448 25.9177 21.2641 26.0257 21.2641 26.2954C21.2641 26.6436 21.2916 26.6736 21.8853 26.8266C23.104 27.1507 23.2235 27.3129 23.2235 28.2104C23.2269 29.0584 22.9628 29.579 21.6412 29.579ZM18.2876 29.4878V26.4262C18.2876 26.191 18.1886 26.0777 17.94 26.0777C17.5384 26.1229 17.1501 26.2485 16.7981 26.447V29.4845H15.7009V25.1105H16.5363L16.644 25.4797C17.1902 25.2065 17.7875 25.0504 18.3976 25.0213C19.1254 25.0213 19.3862 25.5332 19.3862 26.3156V29.4881L18.2876 29.4878ZM13.0476 29.5787C11.5446 29.5787 11.1334 28.7521 11.1334 27.8532V26.7471C11.1334 25.8482 11.5356 25.0213 13.0476 25.0213C14.5588 25.0213 14.9528 25.8479 14.9528 26.7471V27.8532C14.9528 28.7521 14.5478 29.5787 13.0476 29.5787ZM13.0476 25.9556C12.4626 25.9556 12.2385 26.2175 12.2385 26.7113V27.8887C12.2385 28.3825 12.4629 28.6444 13.0476 28.6444C13.6323 28.6444 13.8554 28.3825 13.8554 27.8887V26.7116C13.8554 26.2175 13.6309 25.9556 13.0476 25.9556ZM6.86182 25.1467C6.86182 24.0501 7.49913 23.4052 8.99257 23.4052C9.54088 23.4052 10.0872 23.472 10.6193 23.6041L10.4942 24.5842C10.0107 24.4919 9.52036 24.4406 9.02829 24.431C8.24557 24.431 7.99385 24.701 7.99385 25.34V27.6448C7.99385 28.2816 8.24557 28.5513 9.028 28.5513C9.51996 28.5417 10.0103 28.4913 10.4939 28.4005L10.6193 29.3793C10.0871 29.5113 9.54087 29.578 8.99257 29.5778C7.49913 29.5778 6.86182 28.9388 6.86182 27.8366V25.1467Z" fill="#18181B"/>
<path d="M34.4024 23.7549V29.3149H33.4904V23.7549H34.4024ZM37.4958 23.7549C38.0878 23.7549 38.6051 23.8696 39.0478 24.0989C39.4958 24.3229 39.8398 24.6483 40.0798 25.0749C40.3251 25.4963 40.4478 25.9896 40.4478 26.5549C40.4478 27.1203 40.3251 27.6109 40.0798 28.0269C39.8398 28.4429 39.4958 28.7629 39.0478 28.9869C38.6051 29.2056 38.0878 29.3149 37.4958 29.3149H35.6798V23.7549H37.4958ZM37.4958 28.5709C38.1464 28.5709 38.6451 28.3949 38.9918 28.0429C39.3384 27.6909 39.5118 27.1949 39.5118 26.5549C39.5118 25.9096 39.3384 25.4056 38.9918 25.0429C38.6451 24.6803 38.1464 24.4989 37.4958 24.4989H36.5918V28.5709H37.4958Z" fill="#18181B"/>
</svg>
