<svg width="91" height="57" viewBox="0 0 91 57" fill="none" xmlns="http://www.w3.org/2000/svg">
<path d="M24.6855 55.1822C24.6844 52.7422 24.6841 50.3022 24.6838 47.8622C24.6833 43.9597 24.6827 40.0571 24.679 36.1546C24.6788 35.9888 24.6551 35.8231 24.6296 35.6446C24.6111 35.515 24.5916 35.3787 24.5795 35.2308C24.4728 34.5399 24.0318 34.3524 23.4802 34.4225C22.9014 34.496 22.6171 34.8664 22.6651 35.464C22.66 35.8013 22.6537 36.1385 22.6474 36.4758C22.6337 37.2068 22.62 37.9378 22.619 38.6688C22.6184 39.1314 22.6179 39.5939 22.6173 40.0566C22.611 45.3286 22.6046 50.6074 22.5338 55.9704H24.7425C24.7096 55.6755 24.6857 55.4289 24.6855 55.1822Z" fill="#373C9E"/>
<path d="M31.7183 56.1006C31.6649 52.1314 31.6614 48.2539 31.6579 44.3766L31.6579 44.3487C31.6577 44.1637 31.666 43.9768 31.6744 43.7899C31.6941 43.3473 31.7138 42.9047 31.6208 42.4873C31.5351 42.1032 31.1813 41.6483 30.8282 41.4881C30.4078 41.2974 29.885 41.4353 29.7007 42.1127C29.6842 44.4569 29.6775 46.7842 29.6708 49.1091C29.6643 51.3686 29.6578 53.6258 29.6423 55.894C29.6332 55.9091 29.6245 55.9237 29.616 55.9379C29.5796 55.9989 29.5478 56.0521 29.5107 56.1006H31.7183Z" fill="#373C9E"/>
<path d="M38.6705 55.2781C38.6527 53.2464 38.6544 51.2146 38.6561 49.1827C38.6566 48.5644 38.6572 47.9461 38.6571 47.3278C38.6571 46.1796 38.6569 45.0315 38.6567 43.8834C38.6561 40.5352 38.6556 37.187 38.6584 33.8389C38.6589 33.1884 38.5283 32.6296 37.7715 32.5109C37.1455 32.4128 36.7404 32.6777 36.6042 33.4062C36.5767 41.0407 36.5716 48.5951 36.5666 56.1492H39.0588C38.833 55.8466 38.673 55.563 38.6705 55.2781Z" fill="#373C9E"/>
<path d="M45.6318 56.1606C45.6318 55.7607 45.6319 55.4359 45.6318 55.111C45.6317 54.0296 45.6315 52.9481 45.6314 51.8666C45.6306 46.4224 45.6299 40.9781 45.6252 35.5338C45.6251 35.3445 45.6081 35.1551 45.5899 34.953C45.577 34.81 45.5636 34.6606 45.5552 34.5003C45.3444 34.2731 45.1274 34.1098 44.9105 33.9464C44.9105 33.9464 44.8929 33.9402 44.8661 33.8864C44.6388 33.8795 44.4346 33.9188 44.1845 33.967C44.1648 33.9708 44.1448 33.9747 44.1245 33.9786C43.9504 34.1768 43.836 34.3683 43.7216 34.5597C43.714 34.6342 43.7042 34.7086 43.6944 34.7831C43.6735 34.9428 43.6525 35.1026 43.6525 35.2624C43.6523 36.071 43.6521 36.8796 43.652 37.6884C43.651 43.7225 43.6499 49.7662 43.6229 55.8909C43.5734 55.9908 43.5326 56.0629 43.4961 56.1216L45.6318 56.1606Z" fill="#373C9E"/>
<path d="M59.8525 29.6184C59.8525 29.5386 59.8613 29.4507 59.8702 29.3625C59.891 29.1553 59.912 28.9463 59.8185 28.8343C59.5296 28.4885 59.1363 28.0541 58.7538 28.0207C58.475 27.9964 58.1031 28.5165 57.858 28.8593L57.8544 28.8644C57.7883 28.9567 57.802 29.1061 57.8175 29.2767C57.8276 29.3866 57.8384 29.5054 57.8293 29.6234C57.7922 38.1467 57.7871 46.6048 57.7861 55.0628C57.7861 55.132 57.7975 55.2012 57.8101 55.2777C57.8236 55.3603 57.8386 55.4514 57.8423 55.5605C57.8284 55.7179 57.8221 55.849 57.8186 55.9704H59.9487C59.8643 47.2025 59.8585 38.5255 59.8527 29.8493L59.8525 29.6184Z" fill="#373C9E"/>
<path d="M66.7973 44.4403C66.7954 43.5961 66.7961 42.7519 66.7968 41.9077C66.7979 40.5249 66.799 39.142 66.7885 37.7592C66.7861 37.4359 66.6771 37.1133 66.5412 36.7112C66.5337 36.689 66.5262 36.6666 66.5185 36.644C66.1427 36.4964 65.8468 36.4418 65.4746 36.3875C65.4172 36.4802 65.3561 36.5728 65.2951 36.6653C65.0557 37.028 64.817 37.3896 64.8087 37.7565C64.7612 39.8484 64.7694 41.9416 64.7776 44.0347C64.7794 44.4971 64.7812 44.9595 64.7824 45.4218C64.7889 47.8986 64.7997 50.3754 64.8106 52.8521C64.8152 53.8973 64.8198 54.9425 64.824 55.9877L66.8334 55.9704C66.8299 54.8905 66.8262 53.8106 66.8226 52.7307C66.8131 49.9673 66.8037 47.2038 66.7973 44.4403Z" fill="#373C9E"/>
<path d="M73.905 56.2601C73.8992 56.2554 73.8915 56.242 73.8838 56.2072C73.8402 55.9821 73.8117 55.8256 73.8028 55.5874C73.8239 47.6959 73.8274 39.8864 73.8193 32.0768C73.8191 31.8737 73.7711 31.6707 73.7186 31.4484C73.691 31.3314 73.6621 31.209 73.6382 31.0785C72.9138 30.3694 72.4636 30.4022 71.9087 31.1972C71.851 31.4095 71.8183 31.5565 71.8184 31.7035L71.8188 32.8902C71.8188 32.891 71.8188 32.8918 71.8188 32.8926C71.8214 40.6043 71.824 48.3168 71.7782 56.0456L73.905 56.2601Z" fill="#373C9E"/>
<path d="M52.7711 54.7565C52.7709 53.5143 52.7712 52.2721 52.7715 51.0298C52.7725 46.3753 52.7736 41.7208 52.7474 37.0665C52.7451 36.6602 52.5182 36.1098 52.2096 35.8986C52.0507 35.7899 51.7446 35.8965 51.42 36.0095C51.2788 36.0586 51.1341 36.109 50.9966 36.1434C50.9278 36.2528 50.8954 36.3472 50.8527 36.4718C50.8423 36.5021 50.8313 36.5342 50.819 36.5686L50.8043 39.1615L50.7833 48.3707L50.781 55.9877H51.0795H51.4372H52.8261C52.7795 55.5308 52.7712 55.1437 52.7711 54.7565Z" fill="#373C9E"/>
<path fill-rule="evenodd" clip-rule="evenodd" d="M0.886458 55.977C0.936879 56.1453 0.971441 56.2022 1.006 56.2591C1.93399 56.257 2.86197 56.255 3.78996 56.2529C7.30606 56.2452 10.8222 56.2374 14.3382 56.2271C14.7143 56.226 15.0902 56.1987 15.5423 56.1659L15.571 56.1639L15.5713 56.1379L15.5735 55.9704L15.577 55.7022C15.5795 55.501 15.582 55.2998 15.5844 55.0986C15.6443 50.0261 15.6501 44.9654 15.656 39.906C15.6567 39.2535 15.6575 38.6011 15.6583 37.9486C15.6588 37.5714 15.7381 37.1942 15.8743 36.7289C16.0119 36.616 16.056 36.5911 16.1 36.5661C16.204 36.5114 16.3007 36.466 16.3909 36.4306C16.5145 36.382 16.6261 36.3522 16.7279 36.3428C16.7736 36.3387 16.8173 36.3386 16.8593 36.3428C16.9475 36.3518 17.028 36.3797 17.1027 36.428C17.2336 36.5128 17.3466 36.6605 17.4521 36.8792C17.5171 37.0138 17.5792 37.1753 17.641 37.3655L17.7013 56.1639C17.7013 56.1639 17.6963 56.148 17.6931 56.1379C17.6937 56.1495 17.6942 56.1611 17.6948 56.1728H17.7013C19.3056 56.1728 20.8815 56.1726 22.5325 56.0715L22.5338 55.9704C22.6046 50.6074 22.611 45.3286 22.6173 40.0566C22.6179 39.5939 22.6184 39.1314 22.619 38.6688C22.62 37.9378 22.6337 37.2068 22.6474 36.4758C22.6537 36.1385 22.66 35.8013 22.6651 35.464C22.6171 34.8664 22.9014 34.496 23.4802 34.4225C24.0318 34.3524 24.4728 34.5399 24.5795 35.2308C24.5916 35.3787 24.6111 35.515 24.6296 35.6446C24.6551 35.8231 24.6788 35.9888 24.679 36.1546C24.6827 40.0571 24.6833 43.9597 24.6838 47.8622C24.6841 50.3022 24.6844 52.7422 24.6855 55.1822C24.6857 55.4289 24.7096 55.6755 24.7425 55.9704C24.7481 56.0209 24.754 56.0728 24.76 56.1263L24.763 56.1521C26.164 56.2285 27.5442 56.2345 28.9881 56.2407C29.1126 56.2412 29.2375 56.2418 29.363 56.2423C29.4262 56.1979 29.4715 56.1519 29.5107 56.1006C29.5478 56.0521 29.5796 55.9989 29.616 55.9379C29.6245 55.9237 29.6332 55.9091 29.6423 55.894C29.6578 53.6258 29.6643 51.3686 29.6708 49.1091C29.6775 46.7842 29.6842 44.4569 29.7007 42.1127C29.885 41.4353 30.4078 41.2974 30.8282 41.4881C31.1813 41.6483 31.5351 42.1032 31.6208 42.4873C31.7138 42.9047 31.6941 43.3473 31.6744 43.7899C31.666 43.9768 31.6577 44.1637 31.6579 44.3487L31.6579 44.3766C31.6614 48.2539 31.6649 52.1314 31.7183 56.1006C33.3677 56.1934 34.9672 56.1941 36.5666 56.1948L36.5666 56.1492C36.5716 48.5951 36.5767 41.0407 36.6042 33.4062C36.7404 32.6777 37.1455 32.4128 37.7715 32.5109C38.5283 32.6296 38.6589 33.1884 38.6584 33.8389C38.6556 37.187 38.6561 40.5352 38.6567 43.8834C38.6569 45.0315 38.6571 46.1796 38.6571 47.3278C38.6572 47.9461 38.6566 48.5644 38.6561 49.1827C38.6544 51.2146 38.6527 53.2464 38.6705 55.2781C38.673 55.563 38.833 55.8466 39.0588 56.1492C39.0766 56.173 39.0947 56.1969 39.1132 56.221C40.6445 56.2503 42.0228 56.2565 43.4011 56.2626C43.4316 56.2195 43.462 56.1764 43.4961 56.1216C43.5326 56.0629 43.5734 55.9908 43.6229 55.8909C43.6499 49.7662 43.651 43.7225 43.652 37.6884C43.6521 36.8796 43.6523 36.071 43.6525 35.2624C43.6525 35.1026 43.6735 34.9428 43.6944 34.7831C43.7042 34.7086 43.714 34.6342 43.7216 34.5597C43.836 34.3683 43.9504 34.1768 44.1245 33.9786C44.1448 33.9747 44.1648 33.9708 44.1845 33.967C44.4346 33.9188 44.6388 33.8795 44.8661 33.8864C44.8929 33.9402 44.9105 33.9464 44.9105 33.9464C45.1274 34.1098 45.3444 34.2731 45.5552 34.5003C45.5636 34.6606 45.577 34.81 45.5899 34.953C45.6081 35.1551 45.6251 35.3445 45.6252 35.5338C45.6299 40.9781 45.6306 46.4224 45.6314 51.8666C45.6315 52.9481 45.6317 54.0296 45.6318 55.111C45.6319 55.4359 45.6318 55.7607 45.6318 56.1606H50.781V55.9877C50.781 53.4524 50.7811 50.9144 50.7833 48.3707C50.786 45.3108 50.7917 42.2428 50.8043 39.1615C50.8079 38.3006 50.8119 37.4386 50.8166 36.5755L50.819 36.5686C50.8313 36.5342 50.8423 36.5021 50.8527 36.4718C50.8954 36.3472 50.9278 36.2528 50.9966 36.1434C51.1341 36.109 51.2788 36.0586 51.42 36.0095C51.7446 35.8965 52.0507 35.7899 52.2096 35.8986C52.5182 36.1098 52.7451 36.6602 52.7474 37.0665C52.7736 41.7208 52.7725 46.3753 52.7715 51.0298C52.7712 52.2721 52.7709 53.5143 52.7711 54.7565C52.7712 55.1437 52.7795 55.5308 52.8261 55.9877C52.8297 56.0226 52.8335 56.058 52.8375 56.0939C54.5308 56.1802 56.1726 56.1794 57.8144 56.1787C57.8151 56.1313 57.8159 56.0839 57.817 56.0354C57.8174 56.014 57.818 55.9923 57.8186 55.9704C57.8221 55.849 57.8284 55.7179 57.8423 55.5605C57.8386 55.4514 57.8236 55.3603 57.8101 55.2777C57.7975 55.2012 57.7861 55.132 57.7861 55.0628C57.7871 46.6048 57.7922 38.1467 57.8293 29.6234C57.8384 29.5054 57.8276 29.3866 57.8175 29.2767C57.802 29.1061 57.7883 28.9567 57.8544 28.8644L57.858 28.8593C58.1031 28.5165 58.475 27.9964 58.7538 28.0207C59.1363 28.0541 59.5296 28.4885 59.8185 28.8343C59.912 28.9463 59.891 29.1553 59.8702 29.3625C59.8613 29.4507 59.8525 29.5386 59.8525 29.6184L59.8527 29.8493C59.8585 38.5255 59.8643 47.2025 59.9487 55.9704L59.9501 56.1216C61.2976 56.2234 62.564 56.2459 63.8298 56.2288C64.0576 56.2257 64.2845 56.1648 64.5115 56.1039C64.6157 56.0759 64.7199 56.048 64.8242 56.0256L64.824 55.9877C64.8198 54.9425 64.8152 53.8973 64.8106 52.8521C64.7997 50.3754 64.7889 47.8986 64.7824 45.4218C64.7812 44.9595 64.7794 44.4971 64.7776 44.0347C64.7694 41.9416 64.7612 39.8484 64.8087 37.7565C64.817 37.3896 65.0557 37.028 65.2951 36.6653C65.3561 36.5728 65.4172 36.4802 65.4746 36.3875C65.8468 36.4418 66.1427 36.4964 66.5185 36.644C66.5262 36.6666 66.5337 36.689 66.5412 36.7112C66.6771 37.1133 66.7861 37.4359 66.7885 37.7592C66.799 39.142 66.7979 40.5249 66.7968 41.9077C66.7961 42.7519 66.7954 43.5961 66.7973 44.4403C66.8037 47.2038 66.8131 49.9673 66.8226 52.7307C66.8262 53.8106 66.8299 54.8905 66.8334 55.9704L66.8342 56.1971L66.8358 56.1971C68.3213 56.2103 69.8068 56.2235 71.3742 56.2519C71.514 56.209 71.5993 56.1561 71.7034 56.0915C71.7271 56.0768 71.7517 56.0615 71.7782 56.0456C71.824 48.3168 71.8214 40.6043 71.8188 32.8926V32.8902L71.8184 31.7035C71.8183 31.5565 71.851 31.4095 71.9087 31.1972C72.4636 30.4022 72.9138 30.3694 73.6382 31.0785C73.6621 31.209 73.691 31.3314 73.7186 31.4484C73.7711 31.6707 73.8191 31.8737 73.8193 32.0768C73.8274 39.8864 73.8239 47.6959 73.8028 55.5874C73.8117 55.8256 73.8402 55.9821 73.8838 56.2072C73.8915 56.242 73.8992 56.2554 73.905 56.2601C73.9107 56.2647 73.9145 56.261 73.9145 56.261H73.9166C79.0666 56.2545 84.2167 56.2479 89.4971 56.202C89.647 55.8972 89.6838 55.6317 89.6839 55.3661C89.6866 40.3903 89.6865 25.4144 89.6851 10.4386C89.6851 10.2562 89.6763 10.0739 89.6675 9.89152C89.6634 9.80634 89.6593 9.72116 89.6561 9.63598C89.4097 9.63402 89.1634 9.63153 88.917 9.62904C88.389 9.6237 87.8609 9.61836 87.3329 9.6183C58.6737 9.61523 30.0145 9.61321 1.23445 9.61133C1.02691 9.64601 0.940229 9.6804 0.853546 9.71479C0.856657 9.73346 0.860637 9.75214 0.864617 9.77081C0.87314 9.81079 0.881663 9.85077 0.881656 9.89075C0.881445 11.0247 0.881227 12.1586 0.881009 13.2926C0.878284 27.4842 0.875558 41.6828 0.886458 55.977ZM19.3401 25.5473C20.3029 24.4949 21.1586 23.4833 22.0143 22.4716L22.0145 22.4714C22.1914 22.2861 22.2647 22.1604 22.3381 22.0347C22.7107 21.7174 22.9806 21.4446 23.2506 21.1719C23.7972 21.2368 24.2254 21.2954 24.6536 21.354C25.6911 21.8239 26.7028 22.2569 27.6993 22.6833C28.4397 23.0002 29.1718 23.3135 29.8999 23.6357C30.3697 23.8437 30.6934 23.8275 31.103 23.4978C31.8757 22.876 32.658 22.266 33.4403 21.6561C34.4885 20.8389 35.5366 20.0217 36.5613 19.176C37.3527 18.5227 38.013 18.4755 38.8732 19.0422C39.6476 19.5523 40.4419 20.0337 41.236 20.5149C42.402 21.2214 43.5674 21.9277 44.6682 22.7242C45.8643 23.5897 46.973 24.5764 48.0815 25.5629C48.5305 25.9625 48.9795 26.362 49.4343 26.7535C49.9064 27.16 50.3708 27.5755 50.8618 28.0151C51.0929 28.2219 51.3299 28.434 51.5764 28.6529C51.9495 28.0888 52.3175 27.5326 52.682 26.9819C53.5215 25.7133 54.342 24.4735 55.1609 23.2327C55.4824 22.7454 55.8024 22.2571 56.1223 21.7687C56.6491 20.9645 57.1759 20.1603 57.7101 19.3611C58.3268 18.4383 58.7272 18.3529 59.7083 18.9535C60.4558 19.4111 61.2004 19.8736 61.945 20.336C63.0189 21.0031 64.0928 21.6701 65.1755 22.3225C65.4095 22.4635 65.862 22.5719 66.0261 22.4478C67.6303 21.2352 69.1948 19.97 70.7227 18.5063C70.5538 18.5063 70.3848 18.5063 70.2159 18.5062C69.834 18.5061 69.4521 18.5059 69.0702 18.5065C68.374 18.5075 67.8792 18.2115 67.8881 17.4761C67.8964 16.7881 68.3954 16.4978 69.0332 16.4917C70.642 16.4765 72.2514 16.4614 73.8597 16.4941C74.8438 16.5141 75.2225 17.1042 74.9085 18.0691C74.608 18.9925 74.2991 19.9132 73.9903 20.8339C73.7033 21.6894 73.4163 22.545 73.136 23.4027C72.9087 24.0982 72.452 24.3669 71.77 24.1563C71.075 23.9417 71.0005 23.3793 71.1682 22.7796C71.2059 22.645 71.246 22.5112 71.2863 22.3767C71.4391 21.8669 71.5947 21.3477 71.6287 20.746C71.3123 20.9933 70.9957 21.2404 70.6792 21.4875C69.9096 22.0882 69.14 22.6889 68.3728 23.2927C67.8587 23.6973 67.3498 24.1087 66.8457 24.5257C66.2185 25.0446 65.6305 25.0842 64.9087 24.6132C63.5787 23.7454 62.2252 22.9135 60.8417 22.0631C60.2825 21.7195 59.7184 21.3728 59.149 21.0195C58.8592 21.4543 58.5697 21.8878 58.2808 22.3206C57.6305 23.2945 56.9829 24.2645 56.3386 25.2368C55.866 25.9501 55.3953 26.6647 54.9247 27.3792C54.2341 28.4277 53.5436 29.4762 52.8467 30.5205C52.2537 31.4092 51.692 31.4706 50.8798 30.7504C50.226 30.1706 49.5805 29.5803 48.9351 28.99C47.5136 27.6899 46.0923 26.39 44.5819 25.2032C43.5518 24.3939 42.4318 23.7007 41.3109 23.0069C40.5336 22.5258 39.7558 22.0443 39.0073 21.5237C38.1364 20.918 37.5517 20.9352 36.7251 21.6524C35.7753 22.4764 34.7741 23.2407 33.7726 24.0051C33.0704 24.5412 32.368 25.0773 31.6831 25.6342C31.1112 26.0993 30.5936 26.1364 29.9621 25.8601C29.3185 25.5784 28.6721 25.3027 28.0258 25.027C26.9228 24.5565 25.82 24.0861 24.7306 23.5861C24.1676 23.3277 23.8451 23.3959 23.4474 23.8682C22.1158 25.4494 20.7667 27.0158 19.4175 28.5822C18.805 29.2933 18.1926 30.0043 17.5818 30.7168C17.1337 31.2395 16.6117 31.4462 16.0389 30.9747C15.458 30.4965 15.5427 29.9503 16.0412 29.4383C16.2656 29.2065 16.3652 29.0509 16.4648 28.8952C16.9526 28.3949 17.3327 27.9311 17.7129 27.4673C17.8957 27.2889 17.9694 27.1616 18.0431 27.0344C18.3248 26.7659 18.5076 26.5518 18.6904 26.3376C18.9718 26.0468 19.156 25.7971 19.3401 25.5473Z" fill="#384EB7" fill-opacity="0.2"/>
<path d="M17.6321 54.3515C17.6369 53.9028 17.6214 53.5246 17.6059 53.1464C17.6176 52.6146 17.6293 52.0828 17.6456 51.4337C17.6332 51.186 17.6163 51.0556 17.5994 50.9252C17.6006 50.6189 17.6018 50.3125 17.6245 49.901C17.6326 49.6022 17.6192 49.4086 17.6059 49.2149L17.6062 49.2067C17.6178 48.9115 17.6294 48.615 17.6465 48.1852C17.6367 47.6035 17.6213 47.1576 17.6059 46.7118C17.6175 46.529 17.6291 46.3462 17.6464 46.0335C17.6367 45.4577 17.6213 45.0118 17.6059 44.566C17.6175 44.2679 17.6292 43.9699 17.6466 43.5316C17.6368 42.7696 17.6213 42.1478 17.6059 41.526C17.6176 40.1916 17.6294 38.8571 17.641 37.3655L17.4521 36.8792C17.3466 36.6605 17.2336 36.5128 17.1027 36.428L17.0424 36.394L16.8593 36.3428H16.7279C16.6261 36.3522 16.5145 36.382 16.3909 36.4306L16.1 36.5661L15.8743 36.7289C15.7381 37.1942 15.6588 37.5714 15.6583 37.9486C15.6575 38.6011 15.6567 39.2535 15.656 39.906C15.6501 44.9654 15.6443 50.0261 15.5844 55.0986C15.582 55.2998 15.5795 55.501 15.577 55.7022L15.5842 55.9704H15.5735L15.5713 56.1379H17.6931C17.6634 55.511 17.638 54.9652 17.6321 54.3515Z" fill="#373C9E"/>
<path d="M89.674 0.663086C89.674 0.663086 89.6658 0.723826 89.6799 0.828403C89.6941 3.0911 89.6941 5.24923 89.6941 7.37895C60.0473 7.37895 30.5408 7.37895 1.06906 7.37895C1.06906 5.09162 1.06906 2.89331 1.06906 0.694996C1.06906 0.694996 1.07662 0.662442 1.14092 0.675981C29.9214 0.689654 58.6376 0.689992 87.3538 0.688789C88.1272 0.688756 88.9006 0.672027 89.674 0.663086ZM6.93455 4.11124C6.94571 4.18576 6.95687 4.26028 6.93902 4.45941C7.0713 4.68655 7.1532 5.03606 7.34626 5.11555C7.75717 5.28471 8.30691 5.4996 8.64923 5.3504C9.03153 5.18377 9.39216 4.66576 9.48383 4.24065C9.54439 3.95977 9.11436 3.5731 8.8167 3.11726C8.23601 3.10152 7.59957 2.86159 7.08674 3.57982C7.04795 3.72077 7.00916 3.86172 6.93455 4.11124ZM27.8993 3.71804C28.0263 4.18506 28.1534 4.65208 28.3347 5.23053C29.3107 5.65262 29.6995 5.54138 30.1947 4.62927C30.1947 4.62927 30.1698 4.549 30.2133 4.46812C30.1983 4.30171 30.1833 4.1353 30.1952 3.83286C30.1312 3.67956 30.0672 3.52627 29.9699 3.24941C29.063 2.64404 28.5301 2.74658 27.8993 3.71804ZM19.4267 5.19407C19.9477 4.75688 20.1343 4.17148 19.7708 3.62257C19.5466 3.28402 19.0311 2.93108 18.6645 2.9493C18.2544 2.96969 17.7063 3.31781 17.513 3.68044C17.3389 4.00712 17.4219 4.64125 17.6432 4.97061C18.0295 5.54551 18.679 5.57465 19.4267 5.19407Z" fill="#384EB7" fill-opacity="0.2"/>
<path d="M89.4283 10.2381C89.5014 10.2999 89.5198 10.3586 89.5198 10.4172C89.5169 25.7422 89.5128 41.0671 89.4843 56.4729C89.3824 56.5543 89.3048 56.555 89.1691 56.4703C89.1111 41.0031 89.1112 25.6212 89.1113 10.2393C89.1959 10.2378 89.2804 10.2364 89.4283 10.2381Z" fill="#373C9E"/>
<path d="M89.6823 0.585499C88.9006 0.672712 88.1272 0.68944 87.3538 0.689473C58.6376 0.690676 29.9214 0.690338 1.12662 0.668027C1.19278 0.450682 1.29937 0.18204 1.49321 0.0813183C1.68136 -0.01644 1.95907 0.0572254 2.19744 0.0572225C30.9834 0.0570453 59.7693 0.0554109 88.5553 0.0741832C88.9385 0.0744342 89.5678 -0.287562 89.6823 0.585499Z" fill="#373C9E"/>
<path d="M1.00112 0.672852C1.06901 2.89288 1.06901 5.09119 1.06901 7.37852C30.5407 7.37852 60.0473 7.37852 89.694 7.37852C89.694 5.24879 89.694 3.09067 89.7024 0.848715C89.807 0.917152 89.9853 1.06868 89.9867 1.22181C90.0043 3.16912 90.0019 5.1167 89.9864 7.06406C89.9849 7.25641 89.8637 7.44781 89.6668 7.68426C60.4431 7.7295 31.3507 7.73003 2.25839 7.73181C1.90153 7.73183 1.54467 7.74788 1.18781 7.75644C1.02661 7.54313 0.728978 7.33205 0.725428 7.11614C0.691881 5.07443 0.704855 3.03188 0.719982 0.989682C0.72082 0.876314 0.858985 0.763966 1.00112 0.672852Z" fill="#373C9E"/>
<path d="M89.6667 9.55556C88.8817 9.6283 88.1073 9.61685 87.3329 9.61677C58.6737 9.61369 30.0145 9.61168 1.27476 9.58582C1.19311 9.52727 1.19202 9.49242 1.18959 9.36044C1.1878 9.23345 1.18738 9.20357 1.18695 9.17369C29.6384 9.17263 58.0898 9.17299 86.5413 9.16337C87.3685 9.16309 88.1958 9.02177 89.0229 9.02445C89.2415 9.02516 89.4593 9.31798 89.6667 9.55556Z" fill="#373C9E"/>
<path d="M57.8885 56.1799C57.8173 55.9934 57.8202 55.8095 57.8978 55.5084C57.9969 55.2165 58.0429 55.0418 58.0429 54.8671C58.0465 46.6781 58.0477 38.4891 58.0384 30.3001C58.0381 30.0523 57.9231 29.8046 57.8617 29.5569C57.8526 29.3209 57.7457 29.0149 57.8544 28.863C58.0994 28.5203 58.4736 27.9949 58.7538 28.0194C59.1363 28.0528 59.5296 28.4872 59.8185 28.833C59.9518 28.9926 59.8523 29.3496 59.8525 29.6171C59.8584 38.4201 59.8636 47.2231 59.8686 56.1091C59.6816 56.0008 59.3631 55.8276 59.3337 55.6145C59.2572 55.0595 59.3072 54.4871 59.3072 53.9216C59.3071 45.8862 59.3073 37.8508 59.3067 29.8154C59.3067 29.5476 59.3496 29.2657 59.2783 29.0175C59.237 28.8738 59.0076 28.6959 58.862 28.6951C58.716 28.6943 58.4833 28.8694 58.4414 29.0123C58.3688 29.2599 58.4105 29.5421 58.4105 29.8098C58.4099 38.2321 58.4157 46.6545 58.391 55.0767C58.39 55.4457 58.1117 55.814 57.8885 56.1799Z" fill="#373C9E"/>
<path d="M0.790199 9.7117C0.863313 9.77353 0.88166 9.83219 0.881649 9.89084C0.8788 25.2158 0.87468 40.5407 0.846224 55.9465C0.744283 56.0279 0.666707 56.0286 0.531009 55.9439C0.472992 40.4767 0.473104 25.0948 0.473215 9.71296C0.557762 9.71148 0.642309 9.71 0.790199 9.7117Z" fill="#373C9E"/>
<path d="M36.6439 56.1973C36.5717 48.6251 36.5767 41.0558 36.6713 33.4036C36.9383 33.3053 37.1156 33.2899 37.293 33.2744C37.2985 40.6719 37.3028 48.0694 37.313 55.4669C37.3135 55.8898 37.3036 56.2659 36.6439 56.1973Z" fill="#373C9E"/>
<path d="M89.7032 7.92481C89.3949 7.98522 89.0866 8.09846 88.7783 8.09855C59.7637 8.10656 30.7492 8.10594 1.73461 8.10573C1.52609 8.10573 1.31757 8.1046 1.1091 8.10102C1.08491 8.10061 1.03932 8.07619 1.04046 8.07111C1.05018 8.02753 1.06838 7.98584 1.22006 7.93417C30.8051 7.92478 60.2542 7.92479 89.7032 7.92481Z" fill="#373C9E"/>
<path d="M89.7032 7.87766C60.2541 7.92469 30.8051 7.92467 1.2722 7.92399C1.18836 7.92331 1.18829 7.84041 1.18805 7.79899C1.54467 7.749 1.90153 7.73295 2.25838 7.73293C31.3507 7.73116 60.4431 7.73063 89.6191 7.73327C89.703 7.76789 89.7032 7.79925 89.7032 7.87766Z" fill="#373C9E"/>
<path d="M37.3446 33.2272C37.1156 33.2904 36.9382 33.3058 36.6938 33.3235C36.7404 32.6778 37.1455 32.4129 37.7715 32.5111C38.5283 32.6297 38.6589 33.1886 38.6584 33.839C38.6546 38.3353 38.6569 42.8316 38.6571 47.3279C38.6573 49.9781 38.6473 52.6283 38.6705 55.2782C38.6732 55.5856 38.8592 55.8914 39.031 56.2365C38.8909 56.28 38.6799 56.2849 38.4279 56.1633C38.387 48.466 38.387 40.8951 38.387 33.3242C38.1848 33.7037 38.1852 34.0839 38.1848 34.4641C38.1765 41.7036 38.1682 48.9431 38.1598 56.1826C38.1215 55.8336 38.0502 55.4846 38.0498 55.1356C38.043 48.1085 38.0481 41.0814 38.0337 34.0543C38.0329 33.6614 38.2943 32.9661 37.3446 33.2272Z" fill="#373C9E"/>
<path d="M73.6478 31.1465C73.7075 31.4563 73.819 31.7661 73.8193 32.0759C73.8275 39.8855 73.8239 47.6951 73.7365 55.5865C73.5178 55.6682 73.3851 55.6681 73.2524 55.6679C73.2522 47.9562 73.2545 40.2445 73.2451 32.5328C73.2447 32.1238 73.1457 31.7149 73.1565 31.2256C73.3629 31.1457 73.5053 31.1461 73.6478 31.1465Z" fill="#373C9E"/>
<path d="M45.5491 34.5645C45.5757 34.8877 45.625 35.2109 45.6253 35.5342C45.6309 42.0599 45.6308 48.5856 45.6319 55.1113C45.632 55.4362 45.6319 55.761 45.6319 56.1609C47.3369 56.1609 48.9855 56.1609 50.7811 56.1609C50.7811 49.6668 50.7811 43.1544 50.877 36.6251C51.008 36.9577 51.073 37.3073 51.0734 37.657C51.0797 43.8415 51.0782 50.026 51.0784 56.2105C50.9968 56.3235 50.9151 56.4365 50.6928 56.5567C48.9411 56.5639 47.3301 56.5641 45.7191 56.5643C45.6033 56.4831 45.4875 56.4019 45.3639 56.1792C45.3561 49.216 45.3534 42.3943 45.3644 35.5726C45.3649 35.2365 45.4848 34.9005 45.5491 34.5645Z" fill="#373C9E"/>
<path d="M51.0542 36.1193C51.4503 36.0295 51.9816 35.7421 52.2096 35.8981C52.5182 36.1093 52.7451 36.6597 52.7474 37.066C52.7806 42.9626 52.77 48.8593 52.7711 54.7561C52.7712 55.1728 52.7808 55.5896 52.7795 56.0876C52.5671 56.0039 52.3078 55.8728 52.1733 55.6621C52.0788 55.514 52.1536 55.2574 52.1536 55.0493C52.1535 49.1318 52.1513 43.2144 52.1572 37.297C52.1577 36.7652 52.2089 36.2349 51.2874 36.3288C51.1278 36.2394 51.091 36.1794 51.0542 36.1193Z" fill="#373C9E"/>
<path d="M64.9 56.0225C64.8098 52.49 64.7916 48.9554 64.7824 45.4209C64.7757 42.8655 64.7507 40.3095 64.8087 37.7555C64.8191 37.295 65.1925 36.8428 65.4753 36.4717C65.5558 36.6702 65.5592 36.7838 65.5626 36.8974C65.5033 37.3657 65.3935 37.8338 65.3925 38.3022C65.3805 43.9045 65.3911 49.5069 65.3673 55.1092C65.366 55.4135 65.1121 55.7166 64.9 56.0225Z" fill="#373C9E"/>
<path d="M15.652 56.1456C15.6523 50.0798 15.6503 44.0141 15.6583 37.9483C15.6588 37.571 15.7381 37.1939 15.8373 36.7949C15.9998 37.0623 16.1972 37.3511 16.1981 37.6406C16.2161 43.6382 16.2165 49.6359 16.1954 55.6335C16.1945 55.8827 15.9501 56.131 15.7406 56.3236C15.6587 56.2268 15.6553 56.1862 15.652 56.1456Z" fill="#373C9E"/>
<path d="M71.8315 56.0269C71.8264 47.9189 71.821 39.8109 71.8184 31.7029C71.8183 31.5559 71.8509 31.4089 71.9757 31.2412C72.1226 31.5686 72.1961 31.9168 72.1966 32.265C72.2082 40.1752 72.2118 48.0854 72.2169 55.9956C72.187 56.0007 72.157 56.0058 72.0301 56.0068C71.8993 56.0108 71.8654 56.0189 71.8315 56.0269Z" fill="#373C9E"/>
<path d="M22.7346 35.4652C22.6171 34.8667 22.9014 34.4964 23.4802 34.4229C24.0318 34.3528 24.4728 34.5402 24.5372 35.2627C24.4611 35.4617 24.4362 35.5637 24.362 35.7174C24.2939 35.9446 24.259 36.1201 24.259 36.2956C24.2586 42.8265 24.2614 49.3574 24.2689 55.9177C24.2739 55.9471 24.2791 56.0065 24.2791 56.0065C24.1528 55.6484 23.9177 55.2908 23.9164 54.9322C23.894 48.6935 23.9003 42.4547 23.9003 36.2159C23.9003 35.8734 23.9003 35.5309 23.9003 35.095C23.435 35.2525 23.1195 35.3593 22.7346 35.4652Z" fill="#373C9E"/>
<path d="M29.7388 42.0459C29.8851 41.4341 30.4079 41.2963 30.8283 41.487C31.1813 41.6471 31.5352 42.102 31.6208 42.4861C31.7532 43.0799 31.6573 43.7245 31.6579 44.3476C31.6614 48.2341 31.6648 52.1207 31.6639 56.0886C30.9689 56.2713 31.0679 55.7818 31.0677 55.3735C31.0664 51.7198 31.0669 48.0661 31.0669 44.4124C31.0669 43.8777 31.0352 43.3406 31.0756 42.809C31.1209 42.2115 30.8769 41.9852 30.1862 42.0692C30.0696 42.0698 29.9941 42.0683 29.9301 42.0653C29.8236 42.0568 29.7812 42.0513 29.7388 42.0459Z" fill="#373C9E"/>
<path d="M0.419808 9.76465C0.47313 25.0942 0.473018 40.4761 0.47284 55.9417C0.413374 55.7464 0.302151 55.4674 0.301995 55.1884C0.293578 40.2989 0.294197 25.4095 0.297493 10.52C0.297545 10.2857 0.342421 10.0513 0.419808 9.76465Z" fill="#373C9E"/>
<path d="M43.7796 34.6091C43.836 34.3684 43.9504 34.177 44.1961 34.0029C44.3767 34.0311 44.426 34.042 44.4752 34.0528C44.4106 34.7883 44.2917 35.5238 44.29 36.2595C44.2751 42.5138 44.2823 48.7682 44.2791 55.0226C44.2789 55.3629 44.2448 55.7032 44.2264 56.0435C44.1402 56.0476 44.0539 56.0516 43.9677 56.0556C43.9527 55.7681 43.9247 55.4806 43.9246 55.193C43.9221 48.6706 43.9239 42.1482 43.9191 35.6257C43.9189 35.3032 43.866 34.9808 43.7796 34.6091Z" fill="#373C9E"/>
<path d="M24.302 56.0595C24.2791 56.0055 24.2739 55.9461 24.3175 55.8556C24.3818 55.589 24.4207 55.413 24.4207 55.237C24.4198 48.7129 24.4154 42.1888 24.4114 35.6647C24.4362 35.5627 24.4611 35.4607 24.5283 35.3271C24.6084 35.5817 24.6787 35.8678 24.679 36.154C24.6851 42.4965 24.6827 48.8391 24.6856 55.1816C24.6857 55.4772 24.7201 55.7728 24.7748 56.201C24.8054 56.367 24.7996 56.4004 24.7939 56.4338C24.6375 56.3271 24.4812 56.2203 24.302 56.0595Z" fill="#373C9E"/>
<path d="M73.8777 56.3353C79.0652 56.2547 84.216 56.2482 89.4476 56.2659C89.5313 56.3488 89.5312 56.4074 89.4437 56.5132C84.17 56.5625 78.9807 56.5647 73.7914 56.5669C73.8079 56.5143 73.8244 56.4618 73.8777 56.3353Z" fill="#373C9E"/>
<path d="M15.571 56.1641C15.6554 56.1867 15.6587 56.2273 15.6663 56.3291C15.6146 56.4086 15.5686 56.4409 15.4294 56.526C10.5546 56.5647 5.78289 56.5647 1.01117 56.5648C1.00787 56.4969 1.00458 56.429 1.00366 56.3102C5.45012 56.2493 9.8942 56.2404 14.3383 56.2273C14.7222 56.2262 15.1061 56.1978 15.571 56.1641Z" fill="#373C9E"/>
<path d="M72.2573 55.9397C72.2119 48.0861 72.2083 40.1759 72.1967 32.2658C72.1962 31.9175 72.1227 31.5694 72.0162 31.1767C72.4636 30.4024 72.9139 30.3696 73.6382 31.0786C73.5053 31.1471 73.3629 31.1467 73.1495 31.1512C72.2628 31.0191 72.3365 31.5711 72.3367 32.0928C72.34 39.0144 72.34 45.9359 72.3361 52.8574C72.3356 53.866 72.311 54.8745 72.2573 55.9397Z" fill="#373C9E"/>
<path d="M29.7008 42.1117C29.7812 42.0516 29.8236 42.057 29.9235 42.1502C29.9797 46.5544 29.9751 50.8709 29.9848 55.1873C29.9855 55.466 30.0966 55.7445 30.1563 56.0231C30.0727 56.1377 29.9891 56.2523 29.8509 56.315C29.7574 56.1246 29.7183 55.9863 29.6793 55.8479C29.6738 51.2911 29.6683 46.7342 29.7008 42.1117Z" fill="#373C9E"/>
<path d="M45.5552 34.5002C45.4848 34.9002 45.3649 35.2361 45.3643 35.5723C45.3533 42.3939 45.3561 49.2156 45.3563 56.121C45.2957 55.8667 45.1821 55.5289 45.1815 55.1908C45.1708 49.0514 45.1861 42.912 45.16 36.7727C45.1562 35.8796 44.9679 34.9873 44.8878 34.0205C45.1275 34.1097 45.3444 34.273 45.5552 34.5002Z" fill="#373C9E"/>
<path d="M38.2175 56.1904C38.1682 48.9431 38.1766 41.7036 38.1848 34.4641C38.1853 34.0839 38.1849 33.7037 38.387 33.3242C38.387 40.8951 38.387 48.466 38.3892 56.1206C38.3526 56.2022 38.3139 56.2002 38.2175 56.1904Z" fill="#373C9E"/>
<path d="M65.6334 36.8977C65.5592 36.7847 65.5558 36.6711 65.5516 36.4723C65.8468 36.4417 66.1428 36.4962 66.4539 36.6096C66.4691 43.1179 66.4691 49.5674 66.4691 56.0169C66.4048 56.0172 66.3405 56.0175 66.2763 56.0179C66.2763 55.7033 66.2763 55.3888 66.2763 55.0743C66.2763 49.42 66.2802 43.7656 66.2691 38.1113C66.2682 37.6426 66.4373 37.0463 65.6334 36.8977Z" fill="#373C9E"/>
<path d="M50.9966 36.1436C51.091 36.18 51.1278 36.2401 51.21 36.328C51.2572 42.7057 51.2599 49.0557 51.2579 55.4056C51.2578 55.639 51.2118 55.8724 51.1327 56.1581C51.0782 50.0258 51.0797 43.8413 51.0733 37.6568C51.073 37.3072 51.0079 36.9576 50.9125 36.5587C50.8811 36.3954 50.91 36.2813 50.9966 36.1436Z" fill="#373C9E"/>
<path d="M58.3981 56.3705C63.5352 56.3152 68.7245 56.313 73.9979 56.3076C73.9637 56.3682 73.8457 56.4873 73.7274 56.4875C68.7504 56.4963 63.7735 56.4949 58.7965 56.491C58.6811 56.4909 58.5657 56.447 58.3981 56.3705Z" fill="#373C9E"/>
<path d="M48.1604 56.3705C53.2975 56.3152 58.4868 56.313 63.7601 56.3076C63.726 56.3682 63.6079 56.4873 63.4897 56.4875C58.5127 56.4963 53.5357 56.4949 48.5588 56.491C48.4434 56.4909 48.328 56.447 48.1604 56.3705Z" fill="#373C9E"/>
<path d="M37.9227 56.3705C43.0597 56.3152 48.249 56.313 53.5224 56.3076C53.4883 56.3682 53.3702 56.4873 53.2519 56.4875C48.275 56.4963 43.298 56.4949 38.321 56.491C38.2057 56.4909 38.0903 56.447 37.9227 56.3705Z" fill="#373C9E"/>
<path d="M31.0975 56.3705C36.2345 56.3152 41.4238 56.313 46.6972 56.3076C46.6631 56.3682 46.545 56.4873 46.4267 56.4875C41.4498 56.4963 36.4728 56.4949 31.4959 56.491C31.3805 56.4909 31.2651 56.447 31.0975 56.3705Z" fill="#373C9E"/>
<path d="M25.9786 56.3705C31.1157 56.3152 36.305 56.313 41.5783 56.3076C41.5442 56.3682 41.4262 56.4873 41.3079 56.4875C36.3309 56.4963 31.354 56.4949 26.377 56.491C26.2616 56.4909 26.1462 56.447 25.9786 56.3705Z" fill="#373C9E"/>
<path d="M20.8597 56.3705C25.9968 56.3152 31.1861 56.313 36.4595 56.3076C36.4254 56.3682 36.3073 56.4873 36.189 56.4875C31.212 56.4963 26.2351 56.4949 21.2581 56.491C21.1427 56.4909 21.0273 56.447 20.8597 56.3705Z" fill="#373C9E"/>
<path d="M1.06244 56.6195C5.78286 56.5651 10.5546 56.565 15.4101 56.5645C15.2756 56.6241 15.0574 56.7364 14.839 56.7369C10.3791 56.7466 5.91926 56.7441 1.45939 56.7402C1.34415 56.7401 1.22896 56.6969 1.06244 56.6195Z" fill="#373C9E"/>
<path d="M17.6118 54.4209C17.6381 54.9755 17.6644 55.5302 17.6948 56.1718C19.3013 56.1718 20.8793 56.1718 22.5366 56.1493C22.6235 56.2259 22.631 56.3249 22.5526 56.4954C20.9181 56.566 19.3695 56.5651 17.8209 56.5642C17.5955 56.4513 17.3702 56.3384 17.1127 56.2094C17.1684 55.8371 17.2234 55.4692 17.3233 54.9967C17.4495 54.7351 17.5307 54.578 17.6118 54.4209Z" fill="#373C9E"/>
<path d="M30.1574 55.9397C30.0966 55.7446 29.9855 55.4662 29.9848 55.1874C29.9751 50.871 29.9797 46.5545 29.9875 42.1534C29.9941 42.0687 30.0696 42.0702 30.1072 42.0703C30.1494 46.6657 30.1539 51.261 30.1574 55.9397Z" fill="#373C9E"/>
<path d="M66.7863 56.2251C68.3202 56.2104 69.8062 56.2236 71.3909 56.2922C71.5386 56.3796 71.5907 56.405 71.6461 56.4239C71.6461 56.4239 71.6445 56.4939 71.5598 56.5283C69.8615 56.562 68.248 56.5611 66.6344 56.5603C66.6691 56.4579 66.7037 56.3555 66.7863 56.2251Z" fill="#373C9E"/>
<path d="M24.7921 56.4641C24.7996 56.4012 24.8054 56.3678 24.7993 56.2849C26.2848 56.2353 27.782 56.2352 29.3513 56.2881C29.4289 56.3721 29.4346 56.403 29.4402 56.4339C29.4402 56.4339 29.4426 56.4953 29.3592 56.5281C27.78 56.5581 26.2842 56.5552 24.7883 56.5524C24.7883 56.5524 24.7903 56.4935 24.7921 56.4641Z" fill="#373C9E"/>
<path d="M90.4188 3.99039C90.4188 5.11055 90.4188 6.14141 90.4188 7.17228C90.378 7.17225 90.3371 7.17222 90.2963 7.1722C90.2963 5.11201 90.2963 3.05182 90.2963 0.991624C90.3371 0.989859 90.378 0.988093 90.4188 0.986328C90.4188 1.95792 90.4188 2.92951 90.4188 3.99039Z" fill="#373C9E"/>
<path d="M66.6869 56.6135C68.2479 56.5607 69.8615 56.5616 71.5588 56.5629C71.0996 56.6235 70.557 56.7303 70.0137 56.734C68.9225 56.7415 67.8309 56.6927 66.6869 56.6135Z" fill="#373C9E"/>
<path d="M17.8036 56.6165C19.3695 56.5661 20.9182 56.567 22.5488 56.571C21.9746 56.6315 21.3189 56.7289 20.6622 56.7365C19.704 56.7475 18.745 56.6938 17.8036 56.6165Z" fill="#373C9E"/>
<path d="M35.4747 56.7448C34.1854 56.7448 32.9789 56.7448 31.7724 56.7448C31.7729 56.6997 31.7735 56.6545 31.774 56.6094C33.3202 56.6094 34.8664 56.6094 36.4125 56.6094C36.4129 56.6545 36.4133 56.6997 36.4137 56.7448C36.1283 56.7448 35.8429 56.7448 35.4747 56.7448Z" fill="#373C9E"/>
<path d="M45.7703 56.619C47.33 56.5648 48.941 56.5646 50.6355 56.5645C50.2359 56.6253 49.753 56.735 49.2696 56.7373C48.1204 56.7429 46.9709 56.6977 45.7703 56.619Z" fill="#373C9E"/>
<path d="M55.3694 56.7438C54.5468 56.7438 53.8125 56.7438 53.0781 56.7438C53.0783 56.7016 53.0785 56.6594 53.0786 56.6172C54.5472 56.6172 56.0157 56.6172 57.4842 56.6172C57.4855 56.6594 57.4869 56.7016 57.4882 56.7438C56.8113 56.7438 56.1345 56.7438 55.3694 56.7438Z" fill="#373C9E"/>
<path d="M24.8375 56.6096C26.2841 56.5543 27.78 56.5571 29.3599 56.5579C29.4148 56.6174 29.3851 56.7333 29.3566 56.733C27.8666 56.7174 26.3766 56.692 24.8375 56.6096Z" fill="#373C9E"/>
<path d="M41.7689 56.5596C42.3549 56.5596 42.8538 56.5596 43.3528 56.5596C43.3527 56.601 43.3526 56.6423 43.3526 56.6837C41.887 56.6837 40.4214 56.6837 38.9558 56.6837C38.9537 56.6423 38.9516 56.601 38.9496 56.5596C39.8604 56.5596 40.7711 56.5596 41.7689 56.5596Z" fill="#373C9E"/>
<path d="M60.0192 56.5625C61.5582 56.5625 63.0972 56.5625 64.6362 56.5625C64.6369 56.6228 64.6376 56.6831 64.6383 56.7434C63.1549 56.7434 61.6716 56.7434 60.104 56.6975C60.0197 56.6515 60.0192 56.5625 60.0192 56.5625Z" fill="#373C9E"/>
<path d="M16.1458 36.6437C16.9259 36.1323 17.2895 36.2838 17.6219 37.2791C17.1325 37.1395 16.6621 36.93 16.1458 36.6437Z" fill="#373C9E"/>
<path d="M17.5301 41.5557C17.6214 42.1485 17.6368 42.7703 17.6291 43.4595C17.0121 42.9218 17.2562 42.2515 17.5301 41.5557Z" fill="#373C9E"/>
<path d="M17.6322 54.3513C17.5307 54.5788 17.4495 54.736 17.3239 54.9247C17.3382 54.372 17.397 53.7877 17.5308 53.1748C17.6214 53.5244 17.6369 53.9027 17.6322 54.3513Z" fill="#373C9E"/>
<path d="M17.5309 44.5938C17.6213 45.0115 17.6367 45.4574 17.629 45.9663C17.0413 45.6151 17.237 45.1197 17.5309 44.5938Z" fill="#373C9E"/>
<path d="M17.5309 46.7393C17.6213 47.157 17.6367 47.6029 17.629 48.1118C17.0413 47.7606 17.237 47.2652 17.5309 46.7393Z" fill="#373C9E"/>
<path d="M73.2536 55.7392C73.3851 55.6687 73.5179 55.6688 73.717 55.669C73.8118 55.8254 73.8403 55.9819 73.8814 56.1966C73.6809 56.1065 73.4679 55.9581 73.2536 55.7392Z" fill="#373C9E"/>
<path d="M17.5233 49.2539C17.6193 49.4086 17.6326 49.6022 17.6238 49.8335C17.548 49.6783 17.4943 49.4856 17.5233 49.2539Z" fill="#373C9E"/>
<path d="M44.5477 34.0424C44.426 34.0424 44.3768 34.0316 44.2559 33.9965C44.4026 33.9259 44.6209 33.8795 44.8638 33.8779C44.7989 33.959 44.7095 33.9954 44.5477 34.0424Z" fill="#373C9E"/>
<path d="M71.7014 56.4002C71.5908 56.4034 71.5386 56.3779 71.473 56.3057C71.5458 56.1977 71.6354 56.1299 71.7783 56.044C71.8655 56.0179 71.8993 56.0098 71.9848 56.0108C71.9432 56.1393 71.8499 56.2587 71.7014 56.4002Z" fill="#373C9E"/>
<path d="M29.4974 56.4198C29.4346 56.4034 29.429 56.3725 29.4351 56.296C29.4997 56.1468 29.5526 56.0433 29.6423 55.8945C29.7183 55.9877 29.7573 56.1261 29.7923 56.3218C29.7102 56.3878 29.6324 56.3966 29.4974 56.4198Z" fill="#373C9E"/>
<path d="M17.5164 50.96C17.6163 51.0554 17.6332 51.1857 17.628 51.3554C17.5484 51.2614 17.4909 51.1282 17.5164 50.96Z" fill="#373C9E"/>
<path d="M43.4414 56.3036C43.4641 56.1733 43.5271 56.0841 43.638 55.9678C43.6178 56.0753 43.5497 56.21 43.4414 56.3036Z" fill="#373C9E"/>
<path d="M1.15688 9.19141C1.18737 9.20515 1.18779 9.23502 1.18888 9.30972C1.16863 9.30553 1.14772 9.25654 1.15688 9.19141Z" fill="#373C9E"/>
<path d="M59.9877 56.5779C60.0192 56.5627 60.0197 56.6517 60.0202 56.6962C59.9992 56.6915 59.9777 56.6423 59.9877 56.5779Z" fill="#373C9E"/>
<path d="M22.4408 21.9901C22.7107 21.7174 22.9807 21.4446 23.3578 21.224C23.8901 21.3333 24.3153 21.3906 24.7404 21.4479C26.4621 22.1731 28.1919 22.8798 29.9 23.6358C30.3698 23.8437 30.6935 23.8275 31.1031 23.4978C32.911 22.0428 34.772 20.6529 36.5613 19.176C37.3528 18.5227 38.0131 18.4755 38.8733 19.0422C40.7846 20.3014 42.8178 21.3852 44.6683 22.7242C46.3489 23.9404 47.857 25.3957 49.4344 26.7535C50.1287 27.3512 50.806 27.9686 51.5764 28.6529C52.8088 26.7897 53.9865 25.0122 55.1609 23.2327C56.012 21.943 56.8516 20.6457 57.7102 19.3611C58.3269 18.4383 58.7273 18.3529 59.7083 18.9535C61.5341 20.0711 63.3421 21.2178 65.1756 22.3225C65.4096 22.4635 65.862 22.5719 66.0262 22.4478C67.6304 21.2352 69.1949 19.97 70.7228 18.5063C70.1719 18.5063 69.6211 18.5057 69.0703 18.5065C68.374 18.5075 67.8792 18.2115 67.8881 17.4761C67.8965 16.7881 68.3955 16.4978 69.0333 16.4917C70.642 16.4765 72.2515 16.4614 73.8597 16.4941C74.8439 16.5141 75.2226 17.1042 74.9086 18.0691C74.3288 19.8506 73.7181 21.6219 73.1361 23.4027C72.9088 24.0982 72.4521 24.3669 71.7701 24.1563C71.0751 23.9417 71.0006 23.3793 71.1683 22.7796C71.3486 22.1351 71.5858 21.5065 71.6287 20.746C70.5432 21.5945 69.4556 22.4406 68.3729 23.2927C67.8588 23.6973 67.3498 24.1087 66.8458 24.5257C66.2186 25.0446 65.6306 25.0842 64.9088 24.6132C63.0412 23.3946 61.1274 22.2469 59.1491 21.0195C58.2069 22.4328 57.2693 23.8325 56.3387 25.2368C55.1726 26.9966 54.0186 28.7645 52.8468 30.5205C52.2538 31.4092 51.6921 31.4706 50.8799 30.7504C48.7861 28.8938 46.7782 26.9288 44.5819 25.2033C42.8375 23.8327 40.8353 22.7951 39.0073 21.5237C38.1365 20.918 37.5518 20.9352 36.7252 21.6524C35.1094 23.0542 33.3448 24.283 31.6832 25.6342C31.1113 26.0993 30.5937 26.1364 29.9622 25.8601C28.2202 25.0978 26.4584 24.3791 24.7307 23.5861C24.1677 23.3277 23.8451 23.3959 23.4474 23.8682C21.5114 26.1672 19.5382 28.4349 17.5818 30.7168C17.1338 31.2395 16.6117 31.4462 16.039 30.9747C15.458 30.4965 15.5428 29.9503 16.1682 29.3999C16.3876 29.1939 16.48 29.0263 16.5725 28.8587C16.9526 28.3949 17.3328 27.9311 17.8315 27.4341C18.014 27.2606 18.0781 27.1203 18.1421 26.9801C18.3249 26.7659 18.5077 26.5518 18.8084 26.3268C19.1 26.0462 19.2736 25.7763 19.4473 25.5065C20.303 24.4948 21.1588 23.4831 22.1287 22.4336C22.3088 22.2605 22.3748 22.1253 22.4408 21.9901Z" fill="#373C9E"/>
<path d="M57.8293 29.623C57.9232 29.8056 58.0382 30.0532 58.0384 30.301C58.0478 38.49 58.0466 46.6791 58.043 54.8681C58.0429 55.0428 57.997 55.2175 57.9169 55.4429C57.8352 55.3499 57.7862 55.2061 57.7862 55.0624C57.7872 46.6044 57.7923 38.1463 57.8293 29.623Z" fill="#373C9E"/>
<path d="M24.697 21.4003C24.3152 21.39 23.89 21.3327 23.4169 21.2266C23.7972 21.2362 24.2254 21.2948 24.697 21.4003Z" fill="#373C9E"/>
<path d="M19.3937 25.5264C19.2736 25.7758 19.1 26.0456 18.857 26.3058C18.9719 26.0463 19.156 25.7965 19.3937 25.5264Z" fill="#373C9E"/>
<path d="M16.5186 28.877C16.48 29.0263 16.3875 29.1939 16.2306 29.3619C16.2657 29.2065 16.3652 29.0509 16.5186 28.877Z" fill="#373C9E"/>
<path d="M22.3894 22.0117C22.3747 22.1246 22.3087 22.2598 22.1805 22.4031C22.1915 22.2855 22.2648 22.1597 22.3894 22.0117Z" fill="#373C9E"/>
<path d="M18.0926 27.0078C18.0781 27.1209 18.014 27.2612 17.886 27.4091C17.8957 27.2895 17.9694 27.1622 18.0926 27.0078Z" fill="#373C9E"/>
<path d="M19.3691 5.23612C18.679 5.57524 18.0295 5.5461 17.6432 4.9712C17.4218 4.64184 17.3389 4.00771 17.513 3.68103C17.7063 3.31841 18.2544 2.97028 18.6645 2.9499C19.0311 2.93168 19.5466 3.28462 19.7708 3.62317C20.1343 4.17208 19.9477 4.75748 19.3691 5.23612Z" fill="#373C9E"/>
<path d="M30.1698 4.55005C30.1698 4.55005 30.1947 4.63032 30.1215 4.65008C29.459 4.81994 28.8697 4.97005 28.2804 5.12016C28.1534 4.65314 28.0264 4.18612 28.0235 3.67591C28.642 3.64877 29.1372 3.68625 29.6301 3.66623C29.7582 3.66103 29.879 3.47629 30.0032 3.37402C30.0672 3.52732 30.1312 3.68062 30.163 3.97338C30.1438 4.25858 30.1568 4.40431 30.1698 4.55005Z" fill="#373C9E"/>
<path d="M6.96798 4.33673C6.95682 4.2622 6.94566 4.18768 7.01353 4.04219C7.12408 3.8223 7.1556 3.67337 7.18712 3.52444C7.59952 2.86352 8.23596 3.10344 8.8417 3.24058C8.88902 5.21739 8.80465 5.26692 7.13669 4.38284C7.08643 4.3562 7.02448 4.3516 6.96798 4.33673Z" fill="#373C9E"/>
<path d="M6.95349 4.39803C7.02449 4.35061 7.08644 4.3552 7.1367 4.38185C8.80466 5.26592 8.88903 5.2164 8.88535 3.29785C9.11433 3.57403 9.54436 3.9607 9.48379 4.24158C9.39213 4.66669 9.03149 5.1847 8.6492 5.35133C8.30688 5.50052 7.75714 5.28564 7.34623 5.11647C7.15316 5.03699 7.07126 4.68748 6.95349 4.39803Z" fill="#373C9E"/>
<path d="M29.9866 3.31172C29.879 3.47577 29.7582 3.66051 29.63 3.66571C29.1372 3.68572 28.642 3.64824 28.0753 3.63031C28.5301 2.74711 29.063 2.64457 29.9866 3.31172Z" fill="#373C9E"/>
<path d="M28.3075 5.17525C28.8696 4.96942 29.4589 4.81932 30.1058 4.68848C29.6995 5.5418 29.3106 5.65304 28.3075 5.17525Z" fill="#373C9E"/>
<path d="M30.1915 4.50924C30.1568 4.40394 30.1438 4.2582 30.1495 4.04102C30.1833 4.13598 30.1983 4.30239 30.1915 4.50924Z" fill="#373C9E"/>
<path d="M7.13689 3.55273C7.15558 3.67301 7.12406 3.82194 7.03142 3.98755C7.0091 3.86329 7.04789 3.72234 7.13689 3.55273Z" fill="#373C9E"/>
<path d="M24.362 35.7168C24.4153 42.1892 24.4198 48.7133 24.4207 55.2373C24.4207 55.4134 24.3818 55.5894 24.3124 55.8265C24.2614 49.3568 24.2586 42.8259 24.259 36.295C24.259 36.1195 24.2939 35.944 24.362 35.7168Z" fill="#373C9E"/>
</svg>
