<svg width="18" height="17" viewBox="0 0 18 17" fill="none" xmlns="http://www.w3.org/2000/svg">
<path fill-rule="evenodd" clip-rule="evenodd" d="M17.3334 8.49935C17.3334 3.89685 13.6026 0.166016 9.00008 0.166016C4.39758 0.166016 0.666748 3.89685 0.666748 8.49935C0.666748 13.1018 4.39758 16.8327 9.00008 16.8327C13.6026 16.8327 17.3334 13.1018 17.3334 8.49935ZM9.00008 4.33268C9.2211 4.33268 9.43306 4.42048 9.58934 4.57676C9.74562 4.73304 9.83341 4.945 9.83341 5.16602V9.33268C9.83341 9.5537 9.74562 9.76566 9.58934 9.92194C9.43306 10.0782 9.2211 10.166 9.00008 10.166C8.77907 10.166 8.56711 10.0782 8.41083 9.92194C8.25455 9.76566 8.16675 9.5537 8.16675 9.33268V5.16602C8.16675 4.945 8.25455 4.73304 8.41083 4.57676C8.56711 4.42048 8.77907 4.33268 9.00008 4.33268ZM8.16675 11.8327C8.16675 11.6117 8.25455 11.3997 8.41083 11.2434C8.56711 11.0871 8.77907 10.9993 9.00008 10.9993H9.00675C9.22776 10.9993 9.43972 11.0871 9.596 11.2434C9.75228 11.3997 9.84008 11.6117 9.84008 11.8327C9.84008 12.0537 9.75228 12.2657 9.596 12.4219C9.43972 12.5782 9.22776 12.666 9.00675 12.666H9.00008C8.77907 12.666 8.56711 12.5782 8.41083 12.4219C8.25455 12.2657 8.16675 12.0537 8.16675 11.8327Z" fill="#FF2020"/>
</svg>
