<svg width="22" height="22" viewBox="0 0 22 22" fill="none" xmlns="http://www.w3.org/2000/svg">
<path d="M10.2 0.600006C9.23998 0.600006 8.59998 1.24001 8.59998 2.20001V8.60001H2.19998C1.23998 8.60001 0.599976 9.24001 0.599976 10.2V11.8C0.599976 12.76 1.23998 13.4 2.19998 13.4H8.59998V19.8C8.59998 20.76 9.23998 21.4 10.2 21.4H11.8C12.76 21.4 13.4 20.76 13.4 19.8V13.4H19.8C20.76 13.4 21.4 12.76 21.4 11.8V10.2C21.4 9.24001 20.76 8.60001 19.8 8.60001H13.4V2.20001C13.4 1.24001 12.76 0.600006 11.8 0.600006H10.2Z" fill="#3C3C3C"/>
</svg>
