<svg width="20" height="23" viewBox="0 0 20 23" fill="none" xmlns="http://www.w3.org/2000/svg">
<path d="M10 11.4286C11.5155 11.4286 12.969 10.8265 14.0406 9.7549C15.1122 8.68326 15.7143 7.22981 15.7143 5.71429C15.7143 4.19876 15.1122 2.74531 14.0406 1.67368C12.969 0.602039 11.5155 0 10 0C8.48448 0 7.03103 0.602039 5.95939 1.67368C4.88775 2.74531 4.28571 4.19876 4.28571 5.71429C4.28571 7.22981 4.88775 8.68326 5.95939 9.7549C7.03103 10.8265 8.48448 11.4286 10 11.4286ZM5.71429 13.8929C2.41071 14.8616 0 17.9152 0 21.5312C0 22.2634 0.59375 22.8571 1.32589 22.8571H18.6741C19.4062 22.8571 20 22.2634 20 21.5312C20 17.9152 17.5893 14.8616 14.2857 13.8929V16.1607C15.5179 16.4777 16.4286 17.5982 16.4286 18.9286V20.7143C16.4286 21.1071 16.1071 21.4286 15.7143 21.4286H15C14.6071 21.4286 14.2857 21.1071 14.2857 20.7143C14.2857 20.3214 14.6071 20 15 20V18.9286C15 18.1384 14.3616 17.5 13.5714 17.5C12.7812 17.5 12.1429 18.1384 12.1429 18.9286V20C12.5357 20 12.8571 20.3214 12.8571 20.7143C12.8571 21.1071 12.5357 21.4286 12.1429 21.4286H11.4286C11.0357 21.4286 10.7143 21.1071 10.7143 20.7143V18.9286C10.7143 17.5982 11.625 16.4777 12.8571 16.1607V13.6116C12.5893 13.5848 12.317 13.5714 12.0402 13.5714H7.95982C7.68304 13.5714 7.41071 13.5848 7.14286 13.6116V16.5312C8.17411 16.8393 8.92857 17.7946 8.92857 18.9286C8.92857 20.308 7.80804 21.4286 6.42857 21.4286C5.04911 21.4286 3.92857 20.308 3.92857 18.9286C3.92857 17.7946 4.68304 16.8393 5.71429 16.5312V13.8929ZM6.42857 20C6.71273 20 6.98525 19.8871 7.18619 19.6862C7.38712 19.4853 7.5 19.2127 7.5 18.9286C7.5 18.6444 7.38712 18.3719 7.18619 18.171C6.98525 17.97 6.71273 17.8571 6.42857 17.8571C6.14441 17.8571 5.87189 17.97 5.67096 18.171C5.47003 18.3719 5.35714 18.6444 5.35714 18.9286C5.35714 19.2127 5.47003 19.4853 5.67096 19.6862C5.87189 19.8871 6.14441 20 6.42857 20Z" fill="#3C3C3C"/>
</svg>
