<svg width="26" height="20" viewBox="0 0 26 20" fill="none" xmlns="http://www.w3.org/2000/svg">
<path d="M25 17L22.9 6.95C22.6 5.9 21.55 5 20.35 5H17.5V3.2C17.5 1.7 16.3 0.5 14.8 0.5H11.2C9.69997 0.5 8.49997 1.7 8.49997 3.2V5H5.64997C4.44997 5 3.39997 5.9 3.09997 6.95L0.999967 17C0.699967 18.5 1.89997 20 3.54997 20H22.3C24.1 20 25.3 18.5 25 17ZM9.99997 3.2C9.99997 2.6 10.6 2 11.2 2H14.8C15.4 2 16 2.6 16 3.2V5H9.99997V3.2ZM17.5 14H14.5V17H11.5V14H8.49997V11H11.5V8H14.5V11H17.5V14Z" fill="#3C3C3C"/>
</svg>
