<svg width="20" height="23" viewBox="0 0 20 23" fill="none" xmlns="http://www.w3.org/2000/svg">
<path d="M14.2594 14.2858L10 18.5443L5.74062 14.2858C2.54911 14.4242 0 17.0358 0 20.2585C0 20.9478 0.273787 21.6087 0.76113 22.0961C1.24847 22.5834 1.90945 22.8572 2.59866 22.8572H17.4013C18.0905 22.8572 18.7515 22.5834 19.2389 22.0961C19.7262 21.6087 20 20.9478 20 20.2585C20 17.0358 17.4509 14.4242 14.2594 14.2858ZM10 13.5715C11.5155 13.5715 12.969 12.9695 14.0406 11.8978C15.1122 10.8262 15.7143 9.37273 15.7143 7.85721V2.93846C15.7146 2.64739 15.6261 2.36316 15.4604 2.12381C15.2948 1.88446 15.06 1.70141 14.7875 1.59917L11.0031 0.181763C10.3564 -0.0607503 9.64364 -0.0607503 8.99687 0.181763L5.2125 1.60096C4.94026 1.70309 4.70567 1.88586 4.54006 2.12486C4.37446 2.36385 4.28572 2.64769 4.28571 2.93846V7.85721C4.28571 9.37273 4.88775 10.8262 5.95939 11.8978C7.03103 12.9695 8.48448 13.5715 10 13.5715ZM8.21429 3.19962C8.21429 3.14042 8.2378 3.08364 8.27966 3.04178C8.32152 2.99992 8.3783 2.97641 8.4375 2.97641H9.40491V2.00899C9.40491 1.94979 9.42843 1.89302 9.47029 1.85116C9.51215 1.8093 9.56892 1.78578 9.62813 1.78578H10.3719C10.4311 1.78578 10.4879 1.8093 10.5297 1.85116C10.5716 1.89302 10.5951 1.94979 10.5951 2.00899V2.97641H11.5625C11.6217 2.97641 11.6785 2.99992 11.7203 3.04178C11.7622 3.08364 11.7857 3.14042 11.7857 3.19962V3.94337C11.7857 4.00257 11.7622 4.05935 11.7203 4.10121C11.6785 4.14307 11.6217 4.16658 11.5625 4.16658H10.5951V5.134C10.5951 5.19319 10.5716 5.24997 10.5297 5.29183C10.4879 5.33369 10.4311 5.35721 10.3719 5.35721H9.62813C9.56892 5.35721 9.51215 5.33369 9.47029 5.29183C9.42843 5.24997 9.40491 5.19319 9.40491 5.134V4.16658H8.4375C8.3783 4.16658 8.32152 4.14307 8.27966 4.10121C8.2378 4.05935 8.21429 4.00257 8.21429 3.94337V3.19962ZM6.42857 7.14292H13.5714V7.85721C13.5714 8.80441 13.1952 9.71282 12.5254 10.3826C11.8556 11.0524 10.9472 11.4286 10 11.4286C9.0528 11.4286 8.14439 11.0524 7.47462 10.3826C6.80485 9.71282 6.42857 8.80441 6.42857 7.85721V7.14292Z" fill="#3C3C3C"/>
</svg>
