<svg width="17" height="19" viewBox="0 0 17 19" fill="none" xmlns="http://www.w3.org/2000/svg">
<path d="M1.62305 4.49984H3.18276M3.18276 4.49984H15.6605M3.18276 4.49984V16.1665C3.18276 16.6085 3.34709 17.0325 3.63959 17.345C3.93209 17.6576 4.32881 17.8332 4.74248 17.8332H12.5411C12.9547 17.8332 13.3514 17.6576 13.6439 17.345C13.9364 17.0325 14.1008 16.6085 14.1008 16.1665V4.49984H3.18276ZM5.52233 4.49984V2.83317C5.52233 2.39114 5.68666 1.96722 5.97916 1.65466C6.27167 1.3421 6.66839 1.1665 7.08205 1.1665H10.2015C10.6151 1.1665 11.0119 1.3421 11.3044 1.65466C11.5969 1.96722 11.7612 2.39114 11.7612 2.83317V4.49984M7.08205 8.6665V13.6665M10.2015 8.6665V13.6665" stroke="#667085" stroke-width="1.66667" stroke-linecap="round" stroke-linejoin="round"/>
</svg>
