<svg width="32" height="28" viewBox="0 0 32 28" fill="none" xmlns="http://www.w3.org/2000/svg">
<path d="M2.875 0C1.42578 0 0.25 1.17578 0.25 2.625V14H8.125C8.60625 14 9 14.3938 9 14.875C9 15.3562 8.60625 15.75 8.125 15.75H0.25V19.25H8.125C8.60625 19.25 9 19.6437 9 20.125C9 20.6063 8.60625 21 8.125 21H0.25V25.375C0.25 26.8242 1.42578 28 2.875 28H14.7914C14.4469 27.4422 14.25 26.7859 14.25 26.0805C14.25 23.5156 15.6609 21.2789 17.75 20.1086V2.625C17.75 1.17578 16.5742 0 15.125 0H2.875ZM8.5625 3.5H9.4375C9.91875 3.5 10.3125 3.89375 10.3125 4.375V5.6875H11.625C12.1062 5.6875 12.5 6.08125 12.5 6.5625V7.4375C12.5 7.91875 12.1062 8.3125 11.625 8.3125H10.3125V9.625C10.3125 10.1062 9.91875 10.5 9.4375 10.5H8.5625C8.08125 10.5 7.6875 10.1062 7.6875 9.625V8.3125H6.375C5.89375 8.3125 5.5 7.91875 5.5 7.4375V6.5625C5.5 6.08125 5.89375 5.6875 6.375 5.6875H7.6875V4.375C7.6875 3.89375 8.08125 3.5 8.5625 3.5ZM28.25 14.875C28.25 13.7147 27.7891 12.6019 26.9686 11.7814C26.1481 10.9609 25.0353 10.5 23.875 10.5C22.7147 10.5 21.6019 10.9609 20.7814 11.7814C19.9609 12.6019 19.5 13.7147 19.5 14.875C19.5 16.0353 19.9609 17.1481 20.7814 17.9686C21.6019 18.7891 22.7147 19.25 23.875 19.25C25.0353 19.25 26.1481 18.7891 26.9686 17.9686C27.7891 17.1481 28.25 16.0353 28.25 14.875ZM16 26.0914C16 27.1469 16.8531 28 17.9086 28H29.8414C30.8969 28 31.75 27.1469 31.75 26.0914C31.75 23.2805 29.4695 21 26.6586 21H21.0914C18.2805 21 16 23.2805 16 26.0914Z" fill="#667085"/>
</svg>
