<svg width="32" height="29" viewBox="0 0 32 29" fill="none" xmlns="http://www.w3.org/2000/svg">
<g clip-path="url(#clip0_502_8485)">
<path d="M2.625 0.5C1.17578 0.5 0 1.67578 0 3.125V14.5H7.875C8.35625 14.5 8.75 14.8938 8.75 15.375C8.75 15.8562 8.35625 16.25 7.875 16.25H0V19.75H7.875C8.35625 19.75 8.75 20.1437 8.75 20.625C8.75 21.1063 8.35625 21.5 7.875 21.5H0V25.875C0 27.3242 1.17578 28.5 2.625 28.5H14.5414C14.1969 27.9422 14 27.2859 14 26.5805C14 24.0156 15.4109 21.7789 17.5 20.6086V3.125C17.5 1.67578 16.3242 0.5 14.875 0.5H2.625ZM8.3125 4H9.1875C9.66875 4 10.0625 4.39375 10.0625 4.875V6.1875H11.375C11.8562 6.1875 12.25 6.58125 12.25 7.0625V7.9375C12.25 8.41875 11.8562 8.8125 11.375 8.8125H10.0625V10.125C10.0625 10.6062 9.66875 11 9.1875 11H8.3125C7.83125 11 7.4375 10.6062 7.4375 10.125V8.8125H6.125C5.64375 8.8125 5.25 8.41875 5.25 7.9375V7.0625C5.25 6.58125 5.64375 6.1875 6.125 6.1875H7.4375V4.875C7.4375 4.39375 7.83125 4 8.3125 4ZM28 15.375C28 14.2147 27.5391 13.1019 26.7186 12.2814C25.8981 11.4609 24.7853 11 23.625 11C22.4647 11 21.3519 11.4609 20.5314 12.2814C19.7109 13.1019 19.25 14.2147 19.25 15.375C19.25 16.5353 19.7109 17.6481 20.5314 18.4686C21.3519 19.2891 22.4647 19.75 23.625 19.75C24.7853 19.75 25.8981 19.2891 26.7186 18.4686C27.5391 17.6481 28 16.5353 28 15.375ZM15.75 26.5914C15.75 27.6469 16.6031 28.5 17.6586 28.5H29.5914C30.6469 28.5 31.5 27.6469 31.5 26.5914C31.5 23.7805 29.2195 21.5 26.4086 21.5H20.8414C18.0305 21.5 15.75 23.7805 15.75 26.5914Z" fill="#667085"/>
</g>
<defs>
<clipPath id="clip0_502_8485">
<rect width="31.5" height="28" fill="white" transform="translate(0 0.5)"/>
</clipPath>
</defs>
</svg>
