<svg width="20" height="12" viewBox="0 0 20 12" fill="none" xmlns="http://www.w3.org/2000/svg">
<path d="M0.579755 10.8921C0.849326 11.1616 1.21489 11.313 1.59607 11.313C1.97724 11.313 2.34281 11.1616 2.61238 10.8921L9.728 3.77646L16.8436 10.8921C17.1147 11.1539 17.4779 11.2988 17.8548 11.2956C18.2317 11.2923 18.5922 11.1411 18.8587 10.8746C19.1253 10.608 19.2764 10.2475 19.2797 9.8706C19.283 9.49369 19.1381 9.13057 18.8763 8.85946L10.7443 0.727521C10.4747 0.458031 10.1092 0.306641 9.728 0.306641C9.34683 0.306641 8.98126 0.458031 8.71169 0.727521L0.579755 8.85946C0.310265 9.12903 0.158875 9.4946 0.158875 9.87577C0.158875 10.2569 0.310265 10.6225 0.579755 10.8921Z" fill="#545454"/>
</svg>
