<svg width="21" height="12" viewBox="0 0 21 12" fill="none" xmlns="http://www.w3.org/2000/svg">
<path d="M19.6482 1.10792C19.3786 0.838428 19.0131 0.687037 18.6319 0.687037C18.2507 0.687037 17.8852 0.838428 17.6156 1.10792L10.5 8.22354L3.38434 1.10792C3.11322 0.846066 2.7501 0.701174 2.3732 0.704449C1.99629 0.707724 1.63575 0.858904 1.36922 1.12543C1.1027 1.39195 0.951519 1.7525 0.948244 2.1294C0.944969 2.50631 1.08986 2.86943 1.35171 3.14054L9.48365 11.2725C9.75322 11.542 10.1188 11.6934 10.5 11.6934C10.8811 11.6934 11.2467 11.542 11.5163 11.2725L19.6482 3.14054C19.9177 2.87097 20.0691 2.5054 20.0691 2.12423C20.0691 1.74306 19.9177 1.37749 19.6482 1.10792Z" fill="#545454"/>
</svg>
