<svg width="24" height="22" viewBox="0 0 24 22" fill="none" xmlns="http://www.w3.org/2000/svg">
<path d="M19 14.5H16.6667V16.8333H19M19 9.83333H16.6667V12.1667H19M21.3333 19.1667H12V16.8333H14.3333V14.5H12V12.1667H14.3333V9.83333H12V7.5H21.3333M9.66667 5.16667H7.33333V2.83333H9.66667M9.66667 9.83333H7.33333V7.5H9.66667M9.66667 14.5H7.33333V12.1667H9.66667M9.66667 19.1667H7.33333V16.8333H9.66667M5 5.16667H2.66667V2.83333H5M5 9.83333H2.66667V7.5H5M5 14.5H2.66667V12.1667H5M5 19.1667H2.66667V16.8333H5M12 5.16667V0.5H0.333332V21.5H23.6667V5.16667H12Z" fill="#373C9E"/>
</svg>
