<svg width="22" height="14" viewBox="0 0 22 14" fill="none" xmlns="http://www.w3.org/2000/svg">
<path d="M1.66667 12.8332V1.1665L9.83333 12.8332V1.1665M14.5 12.8332H20.3333M14.5 4.6665C14.5 5.59476 14.8073 6.485 15.3543 7.14138C15.9013 7.79776 16.6431 8.1665 17.4167 8.1665C18.1902 8.1665 18.9321 7.79776 19.4791 7.14138C20.026 6.485 20.3333 5.59476 20.3333 4.6665C20.3333 3.73825 20.026 2.84801 19.4791 2.19163C18.9321 1.53525 18.1902 1.1665 17.4167 1.1665C16.6431 1.1665 15.9013 1.53525 15.3543 2.19163C14.8073 2.84801 14.5 3.73825 14.5 4.6665Z" stroke="#373C9E" stroke-width="2.33333" stroke-linecap="round" stroke-linejoin="round"/>
</svg>
