<svg width="23" height="23" viewBox="0 0 23 23" fill="none" xmlns="http://www.w3.org/2000/svg">
<path d="M22.3619 17.1492C22.1669 18.6312 21.439 19.9916 20.3143 20.9763C19.1895 21.9609 17.7448 22.5025 16.25 22.4998C7.56562 22.4998 0.499998 15.4342 0.499998 6.74978C0.497319 5.25494 1.03887 3.81024 2.02352 2.68551C3.00816 1.56078 4.36856 0.832927 5.85062 0.637904C6.2254 0.592142 6.60493 0.668815 6.93255 0.856477C7.26017 1.04414 7.51831 1.33272 7.66844 1.67915L9.97844 6.83618V6.84931C10.0934 7.11449 10.1408 7.40402 10.1166 7.69202C10.0924 7.98002 9.99717 8.25754 9.83953 8.49978C9.81984 8.52931 9.79906 8.55665 9.77719 8.584L7.5 11.2834C8.31922 12.9481 10.0605 14.674 11.747 15.4954L14.4092 13.2302C14.4354 13.2083 14.4627 13.1878 14.4912 13.169C14.7333 13.0076 15.0118 12.909 15.3015 12.8823C15.5912 12.8555 15.883 12.9015 16.1505 13.0159L16.1647 13.0224L21.3173 15.3313C21.6644 15.4809 21.9537 15.7388 22.142 16.0665C22.3302 16.3942 22.4074 16.774 22.3619 17.1492Z" fill="#373C9E"/>
</svg>
