<svg width="18" height="18" viewBox="0 0 18 18" fill="none" xmlns="http://www.w3.org/2000/svg">
<path fill-rule="evenodd" clip-rule="evenodd" d="M11.2975 1.18414C12.0292 0.452368 13.0217 0.0412598 14.0566 0.0412598C15.0915 0.0412598 16.084 0.452368 16.8158 1.18414C17.5476 1.91592 17.9587 2.90842 17.9587 3.94331C17.9587 4.9782 17.5476 5.9707 16.8158 6.70248L8.91079 14.6075C8.45912 15.0591 8.19412 15.3241 7.89745 15.555C7.54856 15.8283 7.17356 16.0603 6.77245 16.2508C6.43412 16.4116 6.07745 16.5308 5.47245 16.7325L2.69579 17.6575L2.02745 17.8808C1.76164 17.9695 1.47637 17.9825 1.20362 17.9182C0.930873 17.8538 0.681437 17.7148 0.483285 17.5166C0.285132 17.3185 0.146099 17.0691 0.0817761 16.7963C0.0174534 16.5236 0.0303847 16.2383 0.11912 15.9725L1.26745 12.5283C1.46912 11.9225 1.58829 11.5658 1.74912 11.2266C1.94023 10.8266 2.17218 10.4516 2.44495 10.1016C2.67495 9.80664 2.94079 9.54081 3.39245 9.08914L11.2975 1.18414ZM2.66662 16.3508L5.03412 15.5608C5.69329 15.3408 5.97329 15.2466 6.23412 15.1225C6.5519 14.9703 6.84995 14.7861 7.12829 14.57C7.35579 14.3916 7.56579 14.1841 8.05745 13.6925L14.3658 7.38414C13.5009 7.07766 12.7158 6.58102 12.0683 5.93081C11.4187 5.28317 10.9226 4.49806 10.6166 3.63331L4.30829 9.94164C3.81662 10.4325 3.60829 10.6416 3.43079 10.87C3.21412 11.1478 3.02995 11.4458 2.87829 11.7641C2.75412 12.025 2.65995 12.305 2.43995 12.9641L1.64995 15.3333L2.66662 16.3508ZM11.6291 2.61914C11.6583 2.76498 11.7058 2.96331 11.7866 3.19414C12.0304 3.89168 12.4293 4.5248 12.9533 5.04581C13.4741 5.56968 14.1069 5.96858 14.8041 6.21248C15.0358 6.29331 15.2341 6.34081 15.38 6.36998L15.9316 5.81831C16.426 5.32043 16.7029 4.64689 16.7017 3.94523C16.7005 3.24358 16.4212 2.57101 15.9251 2.07486C15.4289 1.57871 14.7564 1.29944 14.0547 1.29821C13.353 1.29698 12.6795 1.5739 12.1816 2.06831L11.6291 2.61914Z" fill="#667085"/>
</svg>
