<svg width="14" height="17" viewBox="0 0 14 17" fill="none" xmlns="http://www.w3.org/2000/svg">
<path d="M5 13.0002H9C9.55 13.0002 10 12.5502 10 12.0002V7.00016H11.59C12.48 7.00016 12.93 5.92016 12.3 5.29016L7.71 0.700159C7.61749 0.607455 7.5076 0.533908 7.38662 0.483726C7.26565 0.433545 7.13597 0.407715 7.005 0.407715C6.87403 0.407715 6.74435 0.433545 6.62338 0.483726C6.5024 0.533908 6.39251 0.607455 6.3 0.700159L1.71 5.29016C1.08 5.92016 1.52 7.00016 2.41 7.00016H4V12.0002C4 12.5502 4.45 13.0002 5 13.0002ZM1 15.0002H13C13.55 15.0002 14 15.4502 14 16.0002C14 16.5502 13.55 17.0002 13 17.0002H1C0.45 17.0002 0 16.5502 0 16.0002C0 15.4502 0.45 15.0002 1 15.0002Z" fill="white"/>
</svg>
