<svg width="24" height="20" viewBox="0 0 24 20" fill="none" xmlns="http://www.w3.org/2000/svg">
<path d="M21.3333 0.666504H2.66667C1.38333 0.666504 0.344999 1.7165 0.344999 2.99984L0.333332 16.9998C0.333332 18.2832 1.38333 19.3332 2.66667 19.3332H21.3333C22.6167 19.3332 23.6667 18.2832 23.6667 16.9998V2.99984C23.6667 1.7165 22.6167 0.666504 21.3333 0.666504ZM20.8667 5.62484L12.6183 10.7815C12.245 11.0148 11.755 11.0148 11.3817 10.7815L3.13333 5.62484C3.01635 5.55917 2.9139 5.47044 2.8322 5.36403C2.7505 5.25762 2.69124 5.13574 2.658 5.00577C2.62477 4.87579 2.61825 4.74043 2.63885 4.60786C2.65944 4.4753 2.70672 4.34829 2.77783 4.23452C2.84893 4.12076 2.94238 4.0226 3.05251 3.946C3.16265 3.86939 3.28718 3.81593 3.41858 3.78885C3.54997 3.76177 3.6855 3.76163 3.81695 3.78844C3.9484 3.81525 4.07304 3.86846 4.18333 3.94484L12 8.83317L19.8167 3.94484C19.927 3.86846 20.0516 3.81525 20.1831 3.78844C20.3145 3.76163 20.45 3.76177 20.5814 3.78885C20.7128 3.81593 20.8373 3.86939 20.9475 3.946C21.0576 4.0226 21.1511 4.12076 21.2222 4.23452C21.2933 4.34829 21.3406 4.4753 21.3611 4.60786C21.3817 4.74043 21.3752 4.87579 21.342 5.00577C21.3088 5.13574 21.2495 5.25762 21.1678 5.36403C21.0861 5.47044 20.9837 5.55917 20.8667 5.62484Z" fill="#373C9E"/>
</svg>
