<svg width="19" height="25" viewBox="0 0 19 25" fill="none" xmlns="http://www.w3.org/2000/svg">
<path d="M9.33333 18.6667C9.95217 18.6667 10.5457 18.4208 10.9832 17.9832C11.4208 17.5457 11.6667 16.9522 11.6667 16.3333C11.6667 15.7145 11.4208 15.121 10.9832 14.6834C10.5457 14.2458 9.95217 14 9.33333 14C8.71449 14 8.121 14.2458 7.68342 14.6834C7.24583 15.121 7 15.7145 7 16.3333C7 16.9522 7.24583 17.5457 7.68342 17.9832C8.121 18.4208 8.71449 18.6667 9.33333 18.6667ZM16.3333 8.16667C16.9522 8.16667 17.5457 8.4125 17.9832 8.85008C18.4208 9.28767 18.6667 9.88116 18.6667 10.5V22.1667C18.6667 22.7855 18.4208 23.379 17.9832 23.8166C17.5457 24.2542 16.9522 24.5 16.3333 24.5H2.33333C1.71449 24.5 1.121 24.2542 0.683417 23.8166C0.245833 23.379 0 22.7855 0 22.1667V10.5C0 9.88116 0.245833 9.28767 0.683417 8.85008C1.121 8.4125 1.71449 8.16667 2.33333 8.16667H3.5V5.83333C3.5 4.28624 4.11458 2.80251 5.20854 1.70854C6.30251 0.614582 7.78624 0 9.33333 0C10.0994 0 10.8579 0.150884 11.5657 0.444036C12.2734 0.737189 12.9164 1.16687 13.4581 1.70854C13.9998 2.25022 14.4295 2.89328 14.7226 3.60101C15.0158 4.30875 15.1667 5.06729 15.1667 5.83333V8.16667H16.3333ZM9.33333 2.33333C8.40508 2.33333 7.51484 2.70208 6.85846 3.35846C6.20208 4.01484 5.83333 4.90508 5.83333 5.83333V8.16667H12.8333V5.83333C12.8333 4.90508 12.4646 4.01484 11.8082 3.35846C11.1518 2.70208 10.2616 2.33333 9.33333 2.33333Z" fill="#373C9E"/>
</svg>
