<svg width="16" height="13" viewBox="0 0 16 13" fill="none" xmlns="http://www.w3.org/2000/svg">
<path d="M14.4647 0H1.6647C0.784697 0 0.0726973 0.73125 0.0726973 1.625L0.0646973 11.375C0.0646973 12.2688 0.784697 13 1.6647 13H14.4647C15.3447 13 16.0647 12.2688 16.0647 11.375V1.625C16.0647 0.73125 15.3447 0 14.4647 0ZM14.1447 3.45312L8.4887 7.04437C8.2327 7.20687 7.8967 7.20687 7.6407 7.04437L1.9847 3.45312C1.90448 3.40739 1.83423 3.3456 1.77821 3.27149C1.72218 3.19739 1.68155 3.11251 1.65876 3.02199C1.63597 2.93147 1.6315 2.8372 1.64562 2.74487C1.65975 2.65255 1.69217 2.5641 1.74092 2.48487C1.78968 2.40564 1.85376 2.33728 1.92928 2.28393C2.0048 2.23058 2.09019 2.19335 2.18029 2.17449C2.27039 2.15563 2.36332 2.15554 2.45346 2.17421C2.5436 2.19288 2.62907 2.22993 2.7047 2.28312L8.0647 5.6875L13.4247 2.28312C13.5003 2.22993 13.5858 2.19288 13.6759 2.17421C13.7661 2.15554 13.859 2.15563 13.9491 2.17449C14.0392 2.19335 14.1246 2.23058 14.2001 2.28393C14.2756 2.33728 14.3397 2.40564 14.3885 2.48487C14.4372 2.5641 14.4696 2.65255 14.4838 2.74487C14.4979 2.8372 14.4934 2.93147 14.4706 3.02199C14.4478 3.11251 14.4072 3.19739 14.3512 3.27149C14.2952 3.3456 14.2249 3.40739 14.1447 3.45312Z" fill="#3C3C3C"/>
</svg>
