<svg width="13" height="12" viewBox="0 0 13 12" fill="none" xmlns="http://www.w3.org/2000/svg">
<path d="M1.40656 6.74997H9.78406L6.12405 10.41C5.83156 10.7025 5.83156 11.1825 6.12405 11.475C6.41655 11.7675 6.88906 11.7675 7.18155 11.475L12.1241 6.53247C12.4166 6.23997 12.4166 5.76747 12.1241 5.47497L7.18906 0.524967C7.04893 0.384528 6.85869 0.305603 6.66031 0.305603C6.46192 0.305603 6.27168 0.384528 6.13156 0.524967C5.83906 0.817467 5.83906 1.28997 6.13156 1.58247L9.78406 5.24997H1.40656C0.994055 5.24997 0.656555 5.58747 0.656555 5.99997C0.656555 6.41247 0.994055 6.74997 1.40656 6.74997Z" fill="white"/>
</svg>
