<svg width="19" height="18" viewBox="0 0 19 18" fill="none" xmlns="http://www.w3.org/2000/svg">
<path d="M14.5931 8.25899L6.21565 8.26151L9.87455 4.60041C10.167 4.30782 10.1668 3.82782 9.87422 3.53541C9.58164 3.243 9.10914 3.24314 8.81672 3.53573L3.87572 8.47972C3.5833 8.77231 3.58345 9.24481 3.87603 9.53722L8.81253 14.4857C8.95269 14.6261 9.14295 14.705 9.34134 14.7049C9.53973 14.7049 9.72995 14.6259 9.87003 14.4854C10.1624 14.1928 10.1623 13.7203 9.86971 13.4279L6.2161 9.76151L14.5936 9.75899C15.0061 9.75886 15.3435 9.42126 15.3434 9.00876C15.3433 8.59626 15.0056 8.25886 14.5931 8.25899Z" fill="#373C9E"/>
</svg>
