<svg width="23" height="23" viewBox="0 0 23 23" fill="none" xmlns="http://www.w3.org/2000/svg">
<path d="M21.625 0.0625H16.375C16.0269 0.0625 15.6931 0.200781 15.4469 0.446922C15.2008 0.693064 15.0625 1.0269 15.0625 1.375C15.0625 1.7231 15.2008 2.05694 15.4469 2.30308C15.6931 2.54922 16.0269 2.6875 16.375 2.6875H18.4531L14.8744 6.26844C13.014 4.87805 10.696 4.24388 8.38683 4.49353C6.0777 4.74319 3.94881 5.85814 2.42854 7.61404C0.908276 9.36994 0.109453 11.6365 0.192815 13.9576C0.276176 16.2786 1.23554 18.482 2.87785 20.1243C4.52017 21.7667 6.72355 22.726 9.04464 22.8094C11.3657 22.8927 13.6323 22.0939 15.3882 20.5737C17.1441 19.0534 18.259 16.9245 18.5087 14.6154C18.7583 12.3062 18.1241 9.98825 16.7338 8.12781L20.3125 4.54688V6.625C20.3125 6.9731 20.4508 7.30694 20.6969 7.55308C20.9431 7.79922 21.2769 7.9375 21.625 7.9375C21.9731 7.9375 22.3069 7.79922 22.5531 7.55308C22.7992 7.30694 22.9375 6.9731 22.9375 6.625V1.375C22.9375 1.0269 22.7992 0.693064 22.5531 0.446922C22.3069 0.200781 21.9731 0.0625 21.625 0.0625ZM14.0136 18.2691C13.0957 19.1866 11.9264 19.8113 10.6535 20.0643C9.38053 20.3173 8.06117 20.1872 6.86218 19.6904C5.6632 19.1937 4.63843 18.3525 3.91745 17.2734C3.19647 16.1942 2.81166 14.9256 2.81166 13.6277C2.81166 12.3299 3.19647 11.0612 3.91745 9.98208C4.63843 8.90294 5.6632 8.06181 6.86218 7.56503C8.06117 7.06825 9.38053 6.93814 10.6535 7.19114C11.9264 7.44414 13.0957 8.06889 14.0136 8.98641C15.2422 10.2186 15.9321 11.8877 15.9321 13.6277C15.9321 15.3678 15.2422 17.0369 14.0136 18.2691Z" fill="#373C9E"/>
</svg>
