<svg width="14" height="14" viewBox="0 0 14 14" fill="none" xmlns="http://www.w3.org/2000/svg">
<path d="M7.46703 5.76704V8.35529H11.061C10.7265 10 9.32628 10.945 7.46703 10.945C5.30144 10.9152 3.56153 9.15121 3.56153 6.98542C3.56153 4.81963 5.30144 3.0556 7.46703 3.02579C8.36719 3.02472 9.23963 3.3371 9.93453 3.90929L11.8845 1.95929C9.64773 -0.00715331 6.38103 -0.260078 3.8682 1.33863C1.35536 2.93734 0.2003 6.00345 1.03372 8.86276C1.86714 11.7221 4.48874 13.6874 7.46703 13.6855C10.8173 13.6855 13.8638 11.2488 13.8638 6.98505C13.8586 6.57452 13.8083 6.16582 13.7138 5.76629L7.46703 5.76704Z" fill="#373C9E"/>
</svg>
