<svg width="14" height="14" viewBox="0 0 14 14" fill="none" xmlns="http://www.w3.org/2000/svg">
<path d="M7.46703 5.76692V8.35517H11.061C10.7265 9.99992 9.32628 10.9449 7.46703 10.9449C5.30144 10.9151 3.56153 9.15109 3.56153 6.9853C3.56153 4.8195 5.30144 3.05548 7.46703 3.02567C8.36719 3.02459 9.23963 3.33698 9.93453 3.90917L11.8845 1.95917C9.64773 -0.00727538 6.38103 -0.2602 3.8682 1.33851C1.35536 2.93721 0.2003 6.00333 1.03372 8.86264C1.86714 11.7219 4.48874 13.6872 7.46703 13.6854C10.8173 13.6854 13.8638 11.2487 13.8638 6.98492C13.8586 6.5744 13.8083 6.1657 13.7138 5.76617L7.46703 5.76692Z" fill="#373C9E"/>
</svg>
