<svg width="44" height="44" viewBox="0 0 44 44" fill="none" xmlns="http://www.w3.org/2000/svg">
<rect x="1" y="1" width="42" height="42" rx="9" fill="#DBE4FF"/>
<rect x="1" y="1" width="42" height="42" rx="9" stroke="#BBBCFF" stroke-width="2"/>
<g clip-path="url(#clip0_472_7719)">
<path d="M17.0002 22.833H13.6668C13.1668 22.833 12.8335 23.1663 12.8335 23.6663V30.333C12.8335 30.833 13.1668 31.1663 13.6668 31.1663H17.0002C17.5002 31.1663 17.8335 30.833 17.8335 30.333V23.6663C17.8335 23.1663 17.5002 22.833 17.0002 22.833ZM30.3335 19.4997H27.0002C26.5002 19.4997 26.1668 19.833 26.1668 20.333V30.333C26.1668 30.833 26.5002 31.1663 27.0002 31.1663H30.3335C30.8335 31.1663 31.1668 30.833 31.1668 30.333V20.333C31.1668 19.833 30.8335 19.4997 30.3335 19.4997ZM23.6668 12.833H20.3335C19.8335 12.833 19.5002 13.1663 19.5002 13.6663V30.333C19.5002 30.833 19.8335 31.1663 20.3335 31.1663H23.6668C24.1668 31.1663 24.5002 30.833 24.5002 30.333V13.6663C24.5002 13.1663 24.1668 12.833 23.6668 12.833Z" fill="#373C9E"/>
</g>
<defs>
<clipPath id="clip0_472_7719">
<rect width="20" height="20" fill="white" transform="translate(12 12)"/>
</clipPath>
</defs>
</svg>
