<svg width="18" height="12" viewBox="0 0 18 12" fill="none" xmlns="http://www.w3.org/2000/svg">
<path d="M8.16427 0.498047C9.22725 0.498098 10.2638 0.82921 11.13 1.44539C11.9962 2.06156 12.6489 2.93221 12.9976 3.93638L13.0601 4.13055L13.0968 4.25055H15.0384C15.6219 4.25073 16.1833 4.47343 16.6081 4.87324C17.033 5.27306 17.2895 5.81987 17.3251 6.40221L17.3293 6.54138V7.37471C17.329 7.74056 17.1913 8.09296 16.9434 8.36201C16.6955 8.63106 16.3555 8.79711 15.9909 8.82721L15.8718 8.83138H14.5168L14.7176 9.31805C14.8564 9.65528 14.8639 10.0323 14.7385 10.3748C14.6131 10.7172 14.3639 11.0002 14.0401 11.168L13.9259 11.2214C13.7938 11.2753 13.6546 11.3101 13.5126 11.3247L13.3701 11.3314H11.8809C11.6264 11.3312 11.3763 11.2645 11.1555 11.1377C10.9348 11.011 10.751 10.8287 10.6226 10.6089L10.5626 10.4947L10.1134 9.54221L10.1584 9.53638C8.99177 9.69138 7.81093 9.70971 6.64093 9.59138L6.22677 9.54388L5.78093 10.4905C5.66315 10.7409 5.47657 10.9526 5.24298 11.1009C5.0094 11.2492 4.73845 11.328 4.46177 11.328H2.95843C2.71902 11.3279 2.48331 11.2689 2.27212 11.1561C2.06093 11.0434 1.88075 10.8803 1.74749 10.6814C1.61423 10.4825 1.53199 10.2539 1.50803 10.0157C1.48407 9.77745 1.51912 9.537 1.6101 9.31555L1.97093 8.44055C1.57139 8.20023 1.24088 7.86053 1.01161 7.45455C0.782327 7.04857 0.662089 6.59013 0.662599 6.12388C0.662807 5.97299 0.717594 5.82727 0.816845 5.71362C0.916097 5.59997 1.05311 5.52607 1.2026 5.50555L1.2876 5.49971H2.85427L3.26843 4.13055C3.58685 3.07998 4.23471 2.15968 5.11631 1.50557C5.99791 0.851462 7.06651 0.49823 8.16427 0.498047ZM13.8118 8.57555C13.1684 8.83388 12.514 9.04638 11.8484 9.21305L11.3909 9.32055L11.6926 9.96221C11.7128 10.0055 11.7472 10.0405 11.7901 10.0614L11.8343 10.0764L11.8809 10.0822H13.3701C13.3996 10.0822 13.4287 10.0759 13.4555 10.0638C13.4824 10.0517 13.5064 10.0341 13.5259 10.012C13.5454 9.98996 13.5601 9.96402 13.5688 9.9359C13.5776 9.90778 13.5803 9.87812 13.5768 9.84888L13.5626 9.79471L13.1643 8.83138H13.1284L13.4709 8.70805L13.8118 8.57555ZM2.51843 8.57555L2.84343 8.70221L3.16677 8.81971L2.7651 9.79138C2.75208 9.82307 2.74708 9.85749 2.75053 9.89157C2.75399 9.92566 2.76581 9.95837 2.78492 9.9868C2.80404 10.0152 2.82988 10.0385 2.86015 10.0546C2.89041 10.0706 2.92417 10.079 2.95843 10.0789H4.46177L4.50927 10.073C4.53998 10.066 4.56868 10.052 4.59322 10.0322C4.61776 10.0125 4.63749 9.98739 4.65093 9.95888L4.9501 9.32305L4.98677 9.33138C4.14382 9.1511 3.31799 8.8985 2.51843 8.57638M2.3501 7.16471L2.47593 6.74805L2.05343 6.74971L2.07427 6.79305C2.14649 6.93194 2.23899 7.05582 2.3501 7.16471ZM13.4751 5.49971L14.1051 7.58138L15.8718 7.58221C15.9186 7.58218 15.964 7.56637 16.0008 7.53735C16.0375 7.50832 16.0634 7.46776 16.0743 7.42221L16.0801 7.37388V6.54138C16.08 6.28364 15.9844 6.03509 15.8117 5.84377C15.639 5.65244 15.4015 5.53194 15.1451 5.50555L15.0384 5.50055L13.4751 5.49971Z" fill="#373C9E"/>
</svg>
