<svg width="18" height="19" viewBox="0 0 18 19" fill="none" xmlns="http://www.w3.org/2000/svg">
<path d="M9 0.75C4.16797 0.75 0.25 4.66797 0.25 9.5C0.25 14.332 4.16797 18.25 9 18.25C13.832 18.25 17.75 14.332 17.75 9.5C17.75 4.66797 13.832 0.75 9 0.75ZM14 5.70508L13.2031 6.46875C13.1328 6.52148 13.0996 6.60742 13.1133 6.69141V12.3105C13.0996 12.3965 13.1328 12.4824 13.2031 12.5332L13.9844 13.2969V13.4668H10.0625V13.3047L10.8691 12.5215C10.9492 12.4414 10.9492 12.418 10.9492 12.2988V7.75195L8.70312 13.4473H8.40039L5.78711 7.75195V11.5703C5.76367 11.7305 5.82031 11.8926 5.93359 12.0078L6.98438 13.2793V13.4492H4V13.2793L5.05078 12.0078C5.10614 11.9506 5.14735 11.8813 5.17109 11.8053C5.19483 11.7293 5.20045 11.6488 5.1875 11.5703V7.15625C5.20117 7.0332 5.1543 6.91406 5.06055 6.83008L4.12695 5.70508V5.53516H7.02734L9.26562 10.4473L11.2363 5.53906H14V5.70508Z" fill="#E2961C"/>
</svg>
