<svg width="25" height="28" viewBox="0 0 25 28" fill="none" xmlns="http://www.w3.org/2000/svg">
<path d="M12.25 14C14.1065 14 15.887 13.2625 17.1997 11.9497C18.5125 10.637 19.25 8.85652 19.25 7C19.25 5.14348 18.5125 3.36301 17.1997 2.05025C15.887 0.737498 14.1065 0 12.25 0C10.3935 0 8.61301 0.737498 7.30025 2.05025C5.9875 3.36301 5.25 5.14348 5.25 7C5.25 8.85652 5.9875 10.637 7.30025 11.9497C8.61301 13.2625 10.3935 14 12.25 14ZM7 17.0188C2.95312 18.2055 0 21.9461 0 26.3758C0 27.2727 0.727344 28 1.62422 28H22.8758C23.7727 28 24.5 27.2727 24.5 26.3758C24.5 21.9461 21.5469 18.2055 17.5 17.0188V19.7969C19.0094 20.1852 20.125 21.5578 20.125 23.1875V25.375C20.125 25.8563 19.7313 26.25 19.25 26.25H18.375C17.8937 26.25 17.5 25.8563 17.5 25.375C17.5 24.8937 17.8937 24.5 18.375 24.5V23.1875C18.375 22.2195 17.593 21.4375 16.625 21.4375C15.657 21.4375 14.875 22.2195 14.875 23.1875V24.5C15.3562 24.5 15.75 24.8937 15.75 25.375C15.75 25.8563 15.3562 26.25 14.875 26.25H14C13.5188 26.25 13.125 25.8563 13.125 25.375V23.1875C13.125 21.5578 14.2406 20.1852 15.75 19.7969V16.6742C15.4219 16.6414 15.0883 16.625 14.7492 16.625H9.75078C9.41172 16.625 9.07812 16.6414 8.75 16.6742V20.2508C10.0133 20.6281 10.9375 21.7984 10.9375 23.1875C10.9375 24.8773 9.56484 26.25 7.875 26.25C6.18516 26.25 4.8125 24.8773 4.8125 23.1875C4.8125 21.7984 5.73672 20.6281 7 20.2508V17.0188ZM7.875 24.5C8.2231 24.5 8.55694 24.3617 8.80308 24.1156C9.04922 23.8694 9.1875 23.5356 9.1875 23.1875C9.1875 22.8394 9.04922 22.5056 8.80308 22.2594C8.55694 22.0133 8.2231 21.875 7.875 21.875C7.5269 21.875 7.19306 22.0133 6.94692 22.2594C6.70078 22.5056 6.5625 22.8394 6.5625 23.1875C6.5625 23.5356 6.70078 23.8694 6.94692 24.1156C7.19306 24.3617 7.5269 24.5 7.875 24.5Z" fill="#373C9E"/>
</svg>
