<svg width="29" height="26" viewBox="0 0 29 26" fill="none" xmlns="http://www.w3.org/2000/svg">
<path d="M15.3334 20.334C15.3334 20.7873 15.3867 21.2273 15.4534 21.6673H3.33335C2.62611 21.6673 1.94783 21.3864 1.44774 20.8863C0.947638 20.3862 0.666687 19.7079 0.666687 19.0007V3.00065C0.666687 1.52065 1.85335 0.333984 3.33335 0.333984H11.3334L14 3.00065H24.6667C25.3739 3.00065 26.0522 3.2816 26.5523 3.7817C27.0524 4.2818 27.3334 4.96007 27.3334 5.66732V13.414C26.16 12.734 24.8 12.334 23.3334 12.334C18.92 12.334 15.3334 15.9207 15.3334 20.334ZM24.6667 19.0007V15.0007H22V19.0007H18V21.6673H22V25.6673H24.6667V21.6673H28.6667V19.0007H24.6667Z" fill="#373C9E"/>
</svg>
