<svg width="20" height="22" viewBox="0 0 20 22" fill="none" xmlns="http://www.w3.org/2000/svg">
<path d="M15.375 21.075L16.525 19.925L12.075 15.475L10.925 16.625C10.3083 17.2417 10 17.9833 10 18.85C10 19.7167 10.3083 20.4583 10.925 21.075C11.5417 21.6917 12.2833 22 13.15 22C14.0167 22 14.7583 21.6917 15.375 21.075ZM17.925 18.525L19.075 17.375C19.6917 16.7583 20 16.0167 20 15.15C20 14.2833 19.6917 13.5417 19.075 12.925C18.4583 12.3083 17.7167 12 16.85 12C15.9833 12 15.2417 12.3083 14.625 12.925L13.475 14.075L17.925 18.525ZM4 8H14V6H4V8ZM9 3.25C9.21667 3.25 9.396 3.179 9.538 3.037C9.68 2.895 9.75067 2.716 9.75 2.5C9.74933 2.284 9.67833 2.105 9.537 1.963C9.39567 1.821 9.21667 1.75 9 1.75C8.78333 1.75 8.60433 1.821 8.463 1.963C8.32167 2.105 8.25067 2.284 8.25 2.5C8.24933 2.716 8.32033 2.89533 8.463 3.038C8.60567 3.18067 8.78467 3.25133 9 3.25ZM8.125 20H2C1.45 20 0.979333 19.8043 0.588 19.413C0.196667 19.0217 0.000666667 18.5507 0 18V4C0 3.45 0.196 2.97933 0.588 2.588C0.98 2.19667 1.45067 2.00067 2 2H6.2C6.41667 1.4 6.77933 0.916667 7.288 0.55C7.79667 0.183333 8.36733 0 9 0C9.63267 0 10.2037 0.183333 10.713 0.55C11.2223 0.916667 11.5847 1.4 11.8 2H16C16.55 2 17.021 2.196 17.413 2.588C17.805 2.98 18.0007 3.45067 18 4V10.125C17.3 9.95833 16.6043 9.94567 15.913 10.087C15.2217 10.2283 14.584 10.4913 14 10.876V10H4V12H12.725L10.725 14H4V16H8.875C8.49167 16.5833 8.229 17.221 8.087 17.913C7.945 18.605 7.958 19.3007 8.126 20" fill="#667085"/>
</svg>
