<svg width="21" height="21" viewBox="0 0 21 21" fill="none" xmlns="http://www.w3.org/2000/svg">
<g clip-path="url(#clip0_582_12228)">
<path fill-rule="evenodd" clip-rule="evenodd" d="M15.1846 6.21153C15.1982 6.11263 15.1879 6.0119 15.1546 5.91778L15.1383 5.83903C15.0923 5.6475 15.0164 5.46443 14.9133 5.29653C14.7983 5.10903 14.6358 4.94653 14.3108 4.62153L11.0733 1.38278C10.7496 1.05778 10.5871 0.895284 10.3983 0.779034C10.2077 0.662303 9.99773 0.5806 9.77833 0.537784C9.68422 0.504465 9.58349 0.494178 9.48458 0.507784C9.34583 0.504034 9.17708 0.504034 8.95333 0.504034H6.19083C4.09083 0.504034 3.04083 0.504034 2.24083 0.912784C1.53692 1.27358 0.964128 1.84638 0.60333 2.55028C0.19458 3.35278 0.19458 4.39903 0.19458 6.49903V14.499C0.19458 16.599 0.19458 17.649 0.60333 18.449C0.964128 19.1529 1.53692 19.7257 2.24083 20.0865C3.04333 20.4953 4.09083 20.4953 6.19083 20.4953H9.21958C9.72083 20.4953 9.97208 19.8415 9.65333 19.4553C9.60137 19.3907 9.53577 19.3383 9.46121 19.302C9.38666 19.2657 9.305 19.2463 9.22208 19.2453H6.18458C5.11333 19.2453 4.38458 19.244 3.82208 19.1978C3.27458 19.1528 2.99333 19.0728 2.79833 18.9728C2.32795 18.7331 1.94551 18.3507 1.70583 17.8803C1.60583 17.6853 1.52458 17.4053 1.48083 16.8565C1.43583 16.294 1.43458 15.569 1.43458 14.494V6.49403C1.43458 5.42278 1.43458 4.69403 1.48083 4.13153C1.52583 3.58403 1.60708 3.30278 1.70583 3.10778C1.94583 2.63778 2.32833 2.25528 2.79833 2.01528C2.99333 1.91528 3.27458 1.83403 3.82333 1.79028C4.38458 1.74528 5.10958 1.74528 6.18458 1.74528H8.93458V6.12028C8.93458 6.28604 9.00043 6.44502 9.11764 6.56223C9.23485 6.67944 9.39382 6.74528 9.55958 6.74528H13.9346V7.42903C13.9346 7.74153 14.1933 7.99153 14.5046 8.02028C14.8608 8.05153 15.1833 7.78528 15.1833 7.42778V6.73653C15.1833 6.51403 15.1833 6.34528 15.1771 6.20528L15.1846 6.21153ZM10.1846 2.26153L13.4221 5.49903H10.1846V2.26153Z" fill="#667085"/>
<path fill-rule="evenodd" clip-rule="evenodd" d="M13.9345 19.2493C14.977 19.2493 15.947 18.9305 16.747 18.3855L18.5845 20.223C18.7602 20.3988 18.9986 20.4975 19.247 20.4975C19.4955 20.4975 19.7338 20.3988 19.9095 20.223C20.0852 20.0473 20.184 19.809 20.184 19.5605C20.184 19.3121 20.0852 19.0738 19.9095 18.898L18.072 17.0605C18.617 16.2593 18.9358 15.298 18.9358 14.248C18.9358 11.4855 16.6983 9.24805 13.9358 9.24805C11.1733 9.24805 8.93579 11.4855 8.93579 14.248C8.93579 17.0105 11.1733 19.248 13.9358 19.248L13.9345 19.2493ZM13.9345 17.9993C16.0095 17.9993 17.6845 16.3243 17.6845 14.2493C17.6845 12.1743 16.0095 10.4993 13.9345 10.4993C11.8595 10.4993 10.1845 12.1743 10.1845 14.2493C10.1845 16.3243 11.8595 17.9993 13.9345 17.9993Z" fill="#667085"/>
</g>
<defs>
<clipPath id="clip0_582_12228">
<rect width="20" height="20" fill="white" transform="translate(0.18457 0.5)"/>
</clipPath>
</defs>
</svg>
