<svg width="20" height="20" viewBox="0 0 20 20" fill="none" xmlns="http://www.w3.org/2000/svg">
<path d="M3.33332 3.33341H6.67499V1.66675H1.66666V6.66675H3.33332V3.33341ZM3.33332 13.3334H1.66666V18.3334H6.67499V16.6667H3.33332V13.3334ZM16.6667 16.6667H13.3333V18.3334H18.3333V13.3334H16.6667V16.6667ZM13.3333 3.33341H16.6667V6.66675H18.3333V1.66675H13.3333V3.33341Z" fill="#667085"/>
<path d="M4 9H9V4H4V9ZM5.66667 5.66667H7.33333V7.33333H5.66667V5.66667ZM4 15.6667H9V10.6667H4V15.6667ZM5.66667 12.3333H7.33333V14H5.66667V12.3333ZM15.6667 4H10.6667V9H15.6667V4ZM14 7.33333H12.3333V5.66667H14V7.33333ZM10.675 10.6667H12.3417V12.3333H10.675V10.6667ZM12.3417 12.3333H14.0083V14H12.3417V12.3333ZM14.0083 14H15.675V15.6667H14.0083V14ZM14.0083 10.6667H15.675V12.3333H14.0083V10.6667Z" fill="#667085"/>
</svg>
