<svg width="20" height="20" viewBox="0 0 20 20" fill="none" xmlns="http://www.w3.org/2000/svg">
<path d="M3.33335 3.33329H6.67502V1.66663H1.66669V6.66663H3.33335V3.33329ZM3.33335 13.3333H1.66669V18.3333H6.67502V16.6666H3.33335V13.3333ZM16.6667 16.6666H13.3334V18.3333H18.3334V13.3333H16.6667V16.6666ZM13.3334 3.33329H16.6667V6.66663H18.3334V1.66663H13.3334V3.33329Z" fill="#667085"/>
<path d="M4 9H9V4H4V9ZM5.66667 5.66667H7.33333V7.33333H5.66667V5.66667ZM4 15.6667H9V10.6667H4V15.6667ZM5.66667 12.3333H7.33333V14H5.66667V12.3333ZM15.6667 4H10.6667V9H15.6667V4ZM14 7.33333H12.3333V5.66667H14V7.33333ZM10.675 10.6667H12.3417V12.3333H10.675V10.6667ZM12.3417 12.3333H14.0083V14H12.3417V12.3333ZM14.0083 14H15.675V15.6667H14.0083V14ZM14.0083 10.6667H15.675V12.3333H14.0083V10.6667Z" fill="#667085"/>
</svg>
