<svg width="44" height="44" viewBox="0 0 44 44" fill="none" xmlns="http://www.w3.org/2000/svg">
<rect x="1" y="1" width="42" height="42" rx="9" fill="white"/>
<rect x="1" y="1" width="42" height="42" rx="9" stroke="#F4F2F2" stroke-width="2"/>
<path d="M15.3334 15.3327H18.6751V13.666H13.6667V18.666H15.3334V15.3327ZM15.3334 25.3327H13.6667V30.3327H18.6751V28.666H15.3334V25.3327ZM28.6667 28.666H25.3334V30.3327H30.3334V25.3327H28.6667V28.666ZM25.3334 15.3327H28.6667V18.666H30.3334V13.666H25.3334V15.3327Z" fill="#667085"/>
<path d="M16 21H21V16H16V21ZM17.6667 17.6667H19.3333V19.3333H17.6667V17.6667ZM16 27.6667H21V22.6667H16V27.6667ZM17.6667 24.3333H19.3333V26H17.6667V24.3333ZM27.6667 16H22.6667V21H27.6667V16ZM26 19.3333H24.3333V17.6667H26V19.3333ZM22.675 22.6667H24.3417V24.3333H22.675V22.6667ZM24.3417 24.3333H26.0083V26H24.3417V24.3333ZM26.0083 26H27.675V27.6667H26.0083V26ZM26.0083 22.6667H27.675V24.3333H26.0083V22.6667Z" fill="#667085"/>
</svg>
