<svg width="25" height="25" viewBox="0 0 25 25" fill="none" xmlns="http://www.w3.org/2000/svg">
<path d="M12.3978 24.8589C9.33115 24.8589 6.65915 23.8424 4.38181 21.8096C2.10448 19.7767 0.798701 17.2376 0.464478 14.1922H3.19781C3.50892 16.5033 4.53692 18.4144 6.28181 19.9256C8.0267 21.4367 10.0654 22.1922 12.3978 22.1922C14.9978 22.1922 17.2036 21.2869 19.0151 19.4762C20.8267 17.6656 21.732 15.4598 21.7311 12.8589C21.7303 10.258 20.8249 8.05266 19.0151 6.24289C17.2054 4.43311 14.9996 3.52733 12.3978 3.52555C10.8645 3.52555 9.43114 3.88111 8.09781 4.59222C6.76448 5.30333 5.64226 6.28111 4.73115 7.52555H8.39781V10.1922H0.397812V2.19222H3.06448V5.32555C4.19781 3.90333 5.58137 2.80333 7.21515 2.02555C8.84892 1.24778 10.5765 0.858887 12.3978 0.858887C14.0645 0.858887 15.6258 1.17578 17.0818 1.80955C18.5378 2.44333 19.8045 3.29844 20.8818 4.37489C21.9591 5.45133 22.8147 6.718 23.4485 8.17489C24.0823 9.63178 24.3987 11.1931 24.3978 12.8589C24.3969 14.5247 24.0805 16.086 23.4485 17.5429C22.8165 18.9998 21.9609 20.2664 20.8818 21.3429C19.8027 22.4193 18.536 23.2749 17.0818 23.9096C15.6276 24.5442 14.0663 24.8607 12.3978 24.8589ZM16.1311 18.4589L11.0645 13.3922V6.19222H13.7311V12.3256L17.9978 16.5922L16.1311 18.4589Z" fill="white"/>
</svg>
