<svg width="34" height="41" viewBox="0 0 34 41" fill="none" xmlns="http://www.w3.org/2000/svg">
<g clip-path="url(#clip0_536_3866)">
<path d="M9.17265 35.8591C9.17265 35.8591 7.11636 35.8591 7.11636 33.8029C7.11636 31.7466 9.17265 25.5777 17.3978 25.5777C25.623 25.5777 27.6793 31.7466 27.6793 33.8029C27.6793 35.8591 25.623 35.8591 25.623 35.8591H9.17265ZM17.3978 23.6242C18.7612 23.6242 20.0688 23.0826 21.0328 22.1185C21.9969 21.1545 22.5385 19.8469 22.5385 18.4835C22.5385 17.1201 21.9969 15.8125 21.0328 14.8485C20.0688 13.8844 18.7612 13.3428 17.3978 13.3428C16.0344 13.3428 14.7268 13.8844 13.7628 14.8485C12.7987 15.8125 12.2571 17.1201 12.2571 18.4835C12.2571 19.8469 12.7987 21.1545 13.7628 22.1185C14.7268 23.0826 16.0344 23.6242 17.3978 23.6242Z" fill="white"/>
<path d="M5.06007 5.01465C3.96935 5.01465 2.9233 5.44794 2.15204 6.21919C1.38078 6.99045 0.947495 8.0365 0.947495 9.12723L0.947495 28.662C0.947495 29.48 1.27246 30.2646 1.8509 30.843C2.42935 31.4214 3.21389 31.7464 4.03193 31.7464H5.37469C5.80622 30.2359 6.55334 28.8342 7.56669 27.6338H3.00378V9.12723C3.00378 8.58187 3.22043 8.05884 3.60606 7.67321C3.99169 7.28758 4.51471 7.07094 5.06007 7.07094H29.7355C30.2809 7.07094 30.8039 7.28758 31.1896 7.67321C31.5752 8.05884 31.7918 8.58187 31.7918 9.12723V27.6338H27.2289C28.3681 28.9786 29.059 30.4571 29.4209 31.7464H30.7637C31.5817 31.7464 32.3663 31.4214 32.9447 30.843C33.5232 30.2646 33.8481 29.48 33.8481 28.662V9.12723C33.8481 8.0365 33.4148 6.99045 32.6436 6.21919C31.8723 5.44794 30.8263 5.01465 29.7355 5.01465H5.06007Z" fill="white"/>
</g>
<defs>
<clipPath id="clip0_536_3866">
<rect width="32.9006" height="40.8443" fill="white" transform="translate(0.947495 0.0146484)"/>
</clipPath>
</defs>
</svg>
