<svg width="24" height="22" viewBox="0 0 24 22" fill="none" xmlns="http://www.w3.org/2000/svg">
<path d="M0 10.9997C0 13.9464 1.21333 16.5997 3.14667 18.5197L1.13333 20.533C1.0412 20.627 0.978944 20.7462 0.954423 20.8755C0.929901 21.0048 0.944207 21.1385 0.995539 21.2597C1.04687 21.3809 1.13293 21.4842 1.24287 21.5566C1.35281 21.6289 1.48171 21.6671 1.61333 21.6664H7.33333C7.70667 21.6664 8 21.373 8 20.9997V15.2797C8 14.6797 7.28 14.3864 6.86667 14.813L5.01333 16.6664C3.57333 15.1997 2.66667 13.213 2.66667 10.9997C2.66667 7.81302 4.53333 5.05302 7.24 3.77302C7.69333 3.55969 8 3.14635 8 2.65302V2.39969C8 1.49302 7.05333 0.919686 6.24 1.30635C4.37956 2.15315 2.80202 3.51731 1.69558 5.23606C0.589151 6.95482 0.000547157 8.9556 0 10.9997ZM10.6667 17.6664H13.3333V14.9997H10.6667V17.6664ZM22.3867 0.333019H16.6667C16.2933 0.333019 16 0.626353 16 0.999686V6.71969C16 7.31969 16.72 7.61302 17.1333 7.18635L18.9867 5.33302C20.4267 6.79969 21.3333 8.78635 21.3333 10.9997C21.3333 14.1864 19.4667 16.9464 16.76 18.2264C16.3067 18.4397 16 18.853 16 19.3464V19.5864C16 20.493 16.9467 21.0664 17.76 20.6797C19.6204 19.8365 21.1984 18.4751 22.3051 16.7583C23.4117 15.0416 24.0002 13.0422 24 10.9997C24 8.05302 22.7867 5.39969 20.8533 3.47969L22.8667 1.46635C22.9588 1.37236 23.0211 1.25319 23.0456 1.12388C23.0701 0.99456 23.0558 0.860878 23.0045 0.739679C22.9531 0.61848 22.8671 0.515187 22.7571 0.442819C22.6472 0.370451 22.5183 0.332246 22.3867 0.333019ZM12 12.333C12.7333 12.333 13.3333 11.733 13.3333 10.9997V5.66635C13.3333 4.93302 12.7333 4.33302 12 4.33302C11.2667 4.33302 10.6667 4.93302 10.6667 5.66635V10.9997C10.6667 11.733 11.2667 12.333 12 12.333Z" fill="#667085"/>
</svg>
