<svg width="39" height="39" viewBox="0 0 39 39" fill="none" xmlns="http://www.w3.org/2000/svg">
<g filter="url(#filter0_d_582_11750)">
<circle cx="18.4564" cy="18" r="10" fill="#DB4040"/>
<path d="M15.8934 20.7877C15.4252 20.7877 15.0275 20.7031 14.7003 20.5339C14.3731 20.3647 14.0798 20.1165 13.8203 19.7893L14.4803 19.1293C14.6439 19.3662 14.8385 19.5524 15.0642 19.6877C15.2898 19.8175 15.5775 19.8824 15.9272 19.8824C16.2544 19.8824 16.5139 19.8147 16.7057 19.6793C16.9031 19.5439 17.0019 19.3577 17.0019 19.1208C17.0019 18.9234 16.9511 18.7626 16.8495 18.6385C16.748 18.5144 16.6126 18.4129 16.4434 18.3339C16.2798 18.2493 16.0965 18.1759 15.8934 18.1139C15.696 18.0462 15.4957 17.9729 15.2926 17.8939C15.0952 17.8093 14.9119 17.7049 14.7426 17.5808C14.579 17.4567 14.4465 17.2959 14.3449 17.0985C14.2434 16.9011 14.1926 16.65 14.1926 16.3454C14.1926 15.9957 14.2772 15.6995 14.4465 15.457C14.6213 15.2088 14.8554 15.0198 15.1488 14.89C15.4421 14.7603 15.7693 14.6954 16.1303 14.6954C16.5195 14.6954 16.8665 14.7716 17.1711 14.9239C17.4813 15.0762 17.7324 15.2708 17.9242 15.5077L17.2642 16.1677C17.0949 15.9759 16.9172 15.8349 16.7311 15.7447C16.5506 15.6488 16.3419 15.6008 16.1049 15.6008C15.8116 15.6008 15.5803 15.66 15.4111 15.7785C15.2475 15.897 15.1657 16.0634 15.1657 16.2777C15.1657 16.4583 15.2165 16.6049 15.318 16.7177C15.4195 16.8249 15.5521 16.918 15.7157 16.997C15.8849 17.0703 16.0683 17.1408 16.2657 17.2085C16.4688 17.2762 16.669 17.3524 16.8665 17.437C17.0695 17.5216 17.2529 17.6316 17.4165 17.767C17.5857 17.8967 17.7211 18.0659 17.8226 18.2747C17.9242 18.4834 17.9749 18.7457 17.9749 19.0616C17.9749 19.5918 17.786 20.0121 17.408 20.3224C17.0357 20.6326 16.5308 20.7877 15.8934 20.7877ZM18.3151 20.7031L20.752 14.78H21.429L23.849 20.7031H22.7997L20.9043 15.9054H21.2597L19.3474 20.7031H18.3151ZM19.5167 19.5608V18.7147H22.6559V19.5608H19.5167Z" fill="#F9FAFB"/>
</g>
<defs>
<filter id="filter0_d_582_11750" x="0.82421" y="0.367789" width="37.8085" height="37.8085" filterUnits="userSpaceOnUse" color-interpolation-filters="sRGB">
<feFlood flood-opacity="0" result="BackgroundImageFix"/>
<feColorMatrix in="SourceAlpha" type="matrix" values="0 0 0 0 0 0 0 0 0 0 0 0 0 0 0 0 0 0 127 0" result="hardAlpha"/>
<feOffset dx="1.27204" dy="1.27204"/>
<feGaussianBlur stdDeviation="4.45212"/>
<feComposite in2="hardAlpha" operator="out"/>
<feColorMatrix type="matrix" values="0 0 0 0 0 0 0 0 0 0 0 0 0 0 0 0 0 0 0.08 0"/>
<feBlend mode="normal" in2="BackgroundImageFix" result="effect1_dropShadow_582_11750"/>
<feBlend mode="normal" in="SourceGraphic" in2="effect1_dropShadow_582_11750" result="shape"/>
</filter>
</defs>
</svg>
