<svg width="29" height="33" viewBox="0 0 29 33" fill="none" xmlns="http://www.w3.org/2000/svg">
<path d="M7.39791 7.28721C7.39791 3.75121 10.5304 0.887207 14.3979 0.887207C18.2654 0.887207 21.3979 3.75121 21.3979 7.28721C21.3979 10.8232 18.2654 13.6872 14.3979 13.6872C10.5304 13.6872 7.39791 10.8232 7.39791 7.28721ZM23.1479 32.8872H24.8978C26.8228 32.8872 28.3978 31.4472 28.3978 29.6872V22.0392C28.3978 20.2472 27.3303 18.5992 25.5803 17.7832C24.8278 17.4312 24.0228 17.0952 23.1479 16.7912V32.8872ZM14.9929 24.8872L19.6479 15.8152C18.0204 15.4792 16.2704 15.2872 14.3979 15.2872C9.9704 15.2872 6.15542 16.4072 3.21543 17.7832C2.36154 18.1853 1.64621 18.7959 1.14886 19.5472C0.651512 20.2985 0.391588 21.1611 0.397941 22.0392V32.8872H4.49292C4.10793 32.1672 3.89793 31.3512 3.89793 30.4872C3.89793 27.3992 6.64542 24.8872 10.0229 24.8872H14.9929ZM10.8979 32.8872L13.3654 28.0872H10.0229C8.57041 28.0872 7.39791 29.1592 7.39791 30.4872C7.39791 31.8152 8.57041 32.8872 10.0229 32.8872H10.8979Z" fill="white"/>
</svg>
