<svg width="29" height="30" viewBox="0 0 29 30" fill="none" xmlns="http://www.w3.org/2000/svg">
<path d="M0.147827 29.25V22.5208L21.0478 1.66042C21.3645 1.37014 21.7144 1.14583 22.0976 0.9875C22.4807 0.829167 22.8829 0.75 23.3041 0.75C23.7263 0.75 24.1353 0.829167 24.5312 0.9875C24.927 1.14583 25.27 1.38333 25.5603 1.7L27.7374 3.91667C28.0541 4.20694 28.2852 4.55 28.4309 4.94583C28.5766 5.34167 28.6489 5.7375 28.6478 6.13333C28.6478 6.55556 28.5755 6.95825 28.4309 7.34142C28.2863 7.72458 28.0551 8.07397 27.7374 8.38958L6.87699 29.25H0.147827ZM23.2645 8.35L25.4812 6.13333L23.2645 3.91667L21.0478 6.13333L23.2645 8.35Z" fill="white"/>
</svg>
