<svg width="29" height="33" viewBox="0 0 29 33" fill="none" xmlns="http://www.w3.org/2000/svg">
<path d="M14.3978 16.8872C16.5196 16.8872 18.5544 16.0444 20.0547 14.5441C21.555 13.0438 22.3978 11.0089 22.3978 8.88721C22.3978 6.76548 21.555 4.73064 20.0547 3.23035C18.5544 1.73006 16.5196 0.887207 14.3978 0.887207C12.2761 0.887207 10.2413 1.73006 8.74097 3.23035C7.24068 4.73064 6.39783 6.76548 6.39783 8.88721C6.39783 11.0089 7.24068 13.0438 8.74097 14.5441C10.2413 16.0444 12.2761 16.8872 14.3978 16.8872ZM8.39783 20.3372C3.77283 21.6935 0.397827 25.9685 0.397827 31.031C0.397827 32.056 1.22908 32.8872 2.25408 32.8872H26.5416C27.5666 32.8872 28.3978 32.056 28.3978 31.031C28.3978 25.9685 25.0228 21.6935 20.3978 20.3372V23.5122C22.1228 23.956 23.3978 25.5247 23.3978 27.3872V29.8872C23.3978 30.4372 22.9478 30.8872 22.3978 30.8872H21.3978C20.8478 30.8872 20.3978 30.4372 20.3978 29.8872C20.3978 29.3372 20.8478 28.8872 21.3978 28.8872V27.3872C21.3978 26.281 20.5041 25.3872 19.3978 25.3872C18.2916 25.3872 17.3978 26.281 17.3978 27.3872V28.8872C17.9478 28.8872 18.3978 29.3372 18.3978 29.8872C18.3978 30.4372 17.9478 30.8872 17.3978 30.8872H16.3978C15.8478 30.8872 15.3978 30.4372 15.3978 29.8872V27.3872C15.3978 25.5247 16.6728 23.956 18.3978 23.5122V19.9435C18.0228 19.906 17.6416 19.8872 17.2541 19.8872H11.5416C11.1541 19.8872 10.7728 19.906 10.3978 19.9435V24.031C11.8416 24.4622 12.8978 25.7997 12.8978 27.3872C12.8978 29.3185 11.3291 30.8872 9.39783 30.8872C7.46658 30.8872 5.89783 29.3185 5.89783 27.3872C5.89783 25.7997 6.95408 24.4622 8.39783 24.031V20.3372ZM9.39783 28.8872C9.79565 28.8872 10.1772 28.7292 10.4585 28.4479C10.7398 28.1666 10.8978 27.785 10.8978 27.3872C10.8978 26.9894 10.7398 26.6079 10.4585 26.3265C10.1772 26.0452 9.79565 25.8872 9.39783 25.8872C9 25.8872 8.61847 26.0452 8.33717 26.3265C8.05586 26.6079 7.89783 26.9894 7.89783 27.3872C7.89783 27.785 8.05586 28.1666 8.33717 28.4479C8.61847 28.7292 9 28.8872 9.39783 28.8872Z" fill="white"/>
</svg>
