<svg width="22" height="14" viewBox="0 0 22 14" fill="none" xmlns="http://www.w3.org/2000/svg">
<path d="M2 12.8332V1.1665L10.1667 12.8332V1.1665M14.8333 12.8332H20.6667M14.8333 4.6665C14.8333 5.59476 15.1406 6.485 15.6876 7.14138C16.2346 7.79776 16.9765 8.1665 17.75 8.1665C18.5235 8.1665 19.2654 7.79776 19.8124 7.14138C20.3594 6.485 20.6667 5.59476 20.6667 4.6665C20.6667 3.73825 20.3594 2.84801 19.8124 2.19163C19.2654 1.53525 18.5235 1.1665 17.75 1.1665C16.9765 1.1665 16.2346 1.53525 15.6876 2.19163C15.1406 2.84801 14.8333 3.73825 14.8333 4.6665Z" stroke="#3C3C3C" stroke-width="2.33333" stroke-linecap="round" stroke-linejoin="round"/>
</svg>
