<svg width="24" height="24" viewBox="0 0 24 24" fill="none" xmlns="http://www.w3.org/2000/svg">
<path d="M13.7779 5.83247L18.1668 10.2214L10.2223 18.1658L5.83344 13.7769L13.7779 5.83247ZM10.8473 19.4297L19.4307 10.8464C19.6066 10.6704 19.6946 10.4621 19.6946 10.2214C19.6946 9.98061 19.6066 9.77228 19.4307 9.59635L14.4029 4.56858C14.2362 4.40191 14.0279 4.31858 13.7779 4.31858C13.5279 4.31858 13.3196 4.40191 13.1529 4.56858L4.56955 13.1519C4.39363 13.3278 4.30566 13.5362 4.30566 13.7769C4.30566 14.0177 4.39363 14.226 4.56955 14.4019L9.59733 19.4297C9.764 19.5964 9.97233 19.6797 10.2223 19.6797C10.4723 19.6797 10.6807 19.5964 10.8473 19.4297ZM23.1946 10.5825L10.5973 23.1936C10.2547 23.5362 9.83576 23.7075 9.34039 23.7075C8.84502 23.7075 8.42603 23.5362 8.08344 23.1936L6.33344 21.4436C6.85196 20.9251 7.11122 20.2954 7.11122 19.5547C7.11122 18.8139 6.85196 18.1843 6.33344 17.6658C5.81492 17.1473 5.18529 16.888 4.44455 16.888C3.70381 16.888 3.07418 17.1473 2.55566 17.6658L0.819553 15.9158C0.47696 15.5732 0.305664 15.1542 0.305664 14.6589C0.305664 14.1635 0.47696 13.7445 0.819553 13.4019L13.4168 0.818576C13.7594 0.475984 14.1783 0.304688 14.6737 0.304688C15.1691 0.304688 15.5881 0.475984 15.9307 0.818576L17.6668 2.55469C17.1483 3.07321 16.889 3.70284 16.889 4.44358C16.889 5.18432 17.1483 5.81395 17.6668 6.33247C18.1853 6.85098 18.8149 7.11024 19.5557 7.11024C20.2964 7.11024 20.926 6.85098 21.4446 6.33247L23.1946 8.06858C23.5371 8.41117 23.7084 8.83015 23.7084 9.32552C23.7084 9.82089 23.5371 10.2399 23.1946 10.5825Z" fill="#667085"/>
</svg>
