<svg width="69" height="61" viewBox="0 0 69 61" fill="none" xmlns="http://www.w3.org/2000/svg">
<path d="M36.2276 14.9636L36.3198 14.9911L36.3239 14.9865C36.7615 15.0658 37.1957 14.8038 37.3243 14.3697C38.4959 10.433 42.187 7.68281 46.2994 7.68281C46.7863 7.68281 47.1812 7.28793 47.1812 6.80107C47.1812 6.3142 46.7863 5.91934 46.2994 5.91934C41.2453 5.91934 36.9981 9.28442 35.6344 13.8671C35.4952 14.3339 35.7611 14.8245 36.2276 14.9636Z" fill="#373C9E" stroke="#F9FFF9" stroke-width="0.3"/>
<path d="M56.5431 42.6562H52.1528C51.7487 42.6562 51.421 42.3285 51.421 41.9245C51.421 41.5204 51.7487 41.1927 52.1528 41.1927H56.5431C62.595 41.1927 67.519 36.2687 67.519 30.2168C67.519 24.1649 62.595 19.2408 56.5431 19.2408H56.4375C56.2253 19.2408 56.0236 19.1488 55.8845 18.9884C55.7455 18.8279 55.6828 18.6152 55.7131 18.4051C55.7784 17.9493 55.8114 17.4915 55.8114 17.0456C55.8114 11.8007 51.5437 7.53309 46.2988 7.53309C44.2583 7.53309 42.3124 8.17073 40.6712 9.37755C40.3106 9.64255 39.7984 9.52495 39.5898 9.12824C34.9418 0.277473 22.8016 -0.911095 16.5076 6.7883C13.8561 10.0319 12.8143 14.2514 13.6491 18.3638C13.7411 18.818 13.3935 19.2414 12.932 19.2414H12.6388C6.58694 19.2414 1.66287 24.1654 1.66287 30.2173C1.66287 36.2692 6.58694 41.1933 12.6388 41.1933H17.0292C17.4332 41.1933 17.7609 41.521 17.7609 41.925C17.7609 42.329 17.4332 42.6568 17.0292 42.6568H12.6388C5.77984 42.6568 0.199341 37.0763 0.199341 30.2173C0.199341 23.5507 5.47089 18.092 12.0644 17.7909C11.4451 13.5243 12.6294 9.22072 15.3744 5.86215C22.1131 -2.38182 35.0273 -1.45779 40.4865 7.73485C42.228 6.64299 44.2209 6.07021 46.2986 6.07021C52.6531 6.07021 57.6885 11.4788 57.2479 17.7977C63.7807 18.1641 68.9822 23.5941 68.9822 30.2167C68.9822 37.0763 63.4017 42.6562 56.5428 42.6562L56.5431 42.6562Z" fill="#373C9E"/>
<path d="M16.0493 41.5112C16.0493 51.6812 24.323 59.9547 34.4928 59.9547C44.6628 59.9547 52.9363 51.6811 52.9363 41.5112C52.9363 31.3413 44.6628 23.0678 34.4928 23.0678C24.3229 23.0678 16.0493 31.3414 16.0493 41.5112ZM17.8131 41.5112C17.8131 32.3144 25.2958 24.8316 34.4928 24.8316C43.6897 24.8316 51.1725 32.3142 51.1725 41.5112C51.1725 50.7081 43.6897 58.1909 34.4928 58.1909C25.2959 58.1909 17.8131 50.7083 17.8131 41.5112Z" fill="#373C9E" stroke="#F9FFF9" stroke-width="0.3"/>
<path d="M34.1416 48.8754C34.1416 49.2541 34.4487 49.5611 34.8273 49.5611C35.2058 49.5611 35.513 49.2545 35.513 48.8754V34.9468C35.513 34.5682 35.2059 34.2611 34.8273 34.2611C34.4486 34.2611 34.1416 34.5682 34.1416 34.9468V48.8754Z" fill="#373C9E" stroke="#373C9E" stroke-width="0.3"/>
<path d="M34.8272 35.9182L31.0265 39.7188L34.8272 35.9182ZM34.8272 35.9182L38.628 39.7189C38.7617 39.8526 38.9377 39.9197 39.1128 39.9197L34.8272 35.9182ZM30.0567 39.7189C30.3244 39.9867 30.7588 39.9869 31.0264 39.7189L39.1129 39.9197C39.2877 39.9197 39.4638 39.8532 39.5978 39.7189C39.8656 39.451 39.8656 39.017 39.5977 38.7492L35.3121 34.4635C35.0443 34.1957 34.6099 34.1955 34.3423 34.4635C34.3423 34.4635 34.3422 34.4636 34.3422 34.4636L30.0567 38.7492C29.7888 39.017 29.7888 39.451 30.0567 39.7189Z" fill="#373C9E" stroke="#373C9E" stroke-width="0.3"/>
</svg>
