<svg width="23" height="22" viewBox="0 0 23 22" fill="none" xmlns="http://www.w3.org/2000/svg">
<path d="M22.0542 6.72834L16.2432 0.917335C15.0212 -0.304665 12.8729 -0.313331 11.6412 0.897835L1.73084 10.65C1.42601 10.9488 1.18368 11.3053 1.01796 11.6986C0.852243 12.092 0.766454 12.5144 0.76559 12.9413C0.762439 13.3679 0.844464 13.7909 1.00686 14.1855C1.16926 14.58 1.40876 14.9382 1.71134 15.239L7.52342 21.0511C8.13767 21.6653 8.95884 22.0044 9.83417 22.0044C10.6998 22.0044 11.5144 21.6718 12.1254 21.0706L22.0347 11.3173C22.34 11.0189 22.5826 10.6625 22.7484 10.2691C22.9141 9.87562 22.9997 9.45303 22.9999 9.02609C23.0031 8.59943 22.921 8.17644 22.7586 7.78188C22.5963 7.38733 22.3568 7.02915 22.0542 6.72834ZM20.5148 9.77359L10.6066 19.5268C10.1938 19.9309 9.46259 19.9277 9.05526 19.5203L7.67401 18.1391C8.04666 17.728 8.24742 17.1897 8.23492 16.635C8.22243 16.0803 7.99762 15.5516 7.60684 15.1578C7.21353 14.7661 6.68472 14.5406 6.12981 14.5279C5.5749 14.5152 5.03633 14.7163 4.62551 15.0895L3.24426 13.7093C3.04276 13.5068 2.93226 13.2381 2.93334 12.9521C2.93442 12.6661 3.04709 12.3963 3.25076 12.197L13.1611 2.44484C13.3658 2.24334 13.6388 2.13284 13.9335 2.13284C14.2293 2.13284 14.5066 2.2455 14.7124 2.45134L16.0937 3.83259C15.7201 4.24297 15.5187 4.78133 15.5312 5.33614C15.5437 5.89095 15.7692 6.4197 16.1608 6.81284C16.5542 7.20449 17.083 7.43 17.6379 7.4427C18.1928 7.4554 18.7314 7.25434 19.1422 6.88109L20.5223 8.26125C20.7249 8.46384 20.8343 8.7325 20.8333 9.0185C20.8322 9.3045 20.7195 9.57317 20.5148 9.77359ZM11.3465 16.4469L6.30142 11.4029L12.4212 5.5215L17.4663 10.5655L11.3465 16.4469ZM7.84734 11.417L11.3606 14.9292L15.9171 10.5514L12.406 7.03925L7.84734 11.417Z" fill="#373C9E"/>
<path fill-rule="evenodd" clip-rule="evenodd" d="M20.5148 9.77359L10.6066 19.5268C10.1938 19.9309 9.46259 19.9277 9.05526 19.5203L7.67401 18.1391C8.04666 17.728 8.24742 17.1897 8.23492 16.635C8.22243 16.0803 7.99762 15.5516 7.60684 15.1578C7.21353 14.7661 6.68472 14.5406 6.12981 14.5279C5.5749 14.5152 5.03633 14.7163 4.62551 15.0895L3.24426 13.7093C3.04276 13.5068 2.93226 13.2381 2.93334 12.9521C2.93442 12.6661 3.04709 12.3963 3.25076 12.197L13.1611 2.44484C13.3658 2.24334 13.6388 2.13284 13.9335 2.13284C14.2293 2.13284 14.5066 2.2455 14.7124 2.45134L16.0937 3.83259C15.7201 4.24297 15.5187 4.78133 15.5312 5.33614C15.5437 5.89095 15.7692 6.4197 16.1608 6.81284C16.5542 7.20449 17.083 7.43 17.6379 7.4427C18.1928 7.4554 18.7314 7.25434 19.1422 6.88109L20.5223 8.26125C20.7249 8.46384 20.8343 8.7325 20.8333 9.0185C20.8322 9.3045 20.7195 9.57317 20.5148 9.77359ZM6.30142 11.4029L11.3465 16.4469L17.4663 10.5655L12.4212 5.5215L6.30142 11.4029Z" fill="#90E5EE"/>
</svg>
