<svg width="18" height="18" viewBox="0 0 18 18" fill="none" xmlns="http://www.w3.org/2000/svg">
<path d="M5.66669 7.16667C6.55074 7.16667 7.39859 6.81548 8.02371 6.19036C8.64883 5.56524 9.00002 4.71739 9.00002 3.83333C9.00002 2.94928 8.64883 2.10143 8.02371 1.47631C7.39859 0.851189 6.55074 0.5 5.66669 0.5C4.78263 0.5 3.93479 0.851189 3.30966 1.47631C2.68454 2.10143 2.33335 2.94928 2.33335 3.83333C2.33335 4.71739 2.68454 5.56524 3.30966 6.19036C3.93479 6.81548 4.78263 7.16667 5.66669 7.16667ZM13.1667 7.16667C13.8297 7.16667 14.4656 6.90328 14.9345 6.43443C15.4033 5.96559 15.6667 5.32971 15.6667 4.66667C15.6667 4.00363 15.4033 3.36774 14.9345 2.8989C14.4656 2.43006 13.8297 2.16667 13.1667 2.16667C12.5036 2.16667 11.8678 2.43006 11.3989 2.8989C10.9301 3.36774 10.6667 4.00363 10.6667 4.66667C10.6667 5.32971 10.9301 5.96559 11.3989 6.43443C11.8678 6.90328 12.5036 7.16667 13.1667 7.16667ZM2.54169 8.83333C2.04441 8.83333 1.56749 9.03088 1.21586 9.38251C0.864231 9.73414 0.666687 10.2111 0.666687 10.7083V10.9167C0.666687 10.9167 0.666687 14.6667 5.66669 14.6667C10.6667 14.6667 10.6667 10.9167 10.6667 10.9167V10.7083C10.6667 10.2111 10.4691 9.73414 10.1175 9.38251C9.76588 9.03088 9.28897 8.83333 8.79169 8.83333H2.54169ZM14.16 9.6625L14.5567 8.65833C14.7584 8.14667 15.3234 7.88083 15.8467 8.05167L16.2059 8.16917C16.8092 8.36667 17.3109 8.84083 17.3309 9.47667C17.4142 12.0683 15.2675 15.7958 12.9867 17.0225C12.4259 17.3242 11.7634 17.125 11.2909 16.6967L11.01 16.4425C10.8137 16.2647 10.6922 16.019 10.6702 15.755C10.6482 15.4911 10.7274 15.2286 10.8917 15.0208L11.5584 14.1792C11.8 13.8733 12.1975 13.7375 12.575 13.8292L13.6517 14.09C14.5706 13.4817 15.0634 12.6264 15.13 11.5242L14.3659 10.7208C14.234 10.5825 14.1446 10.4093 14.1081 10.2218C14.0716 10.0342 14.0896 9.84014 14.16 9.6625Z" fill="#3C3C3C"/>
</svg>
