<svg width="20" height="22" viewBox="0 0 20 22" fill="none" xmlns="http://www.w3.org/2000/svg">
<path d="M9.625 11C11.0837 11 12.4826 10.4205 13.5141 9.38909C14.5455 8.35764 15.125 6.95869 15.125 5.5C15.125 4.04131 14.5455 2.64236 13.5141 1.61091C12.4826 0.579463 11.0837 0 9.625 0C8.16631 0 6.76736 0.579463 5.73591 1.61091C4.70446 2.64236 4.125 4.04131 4.125 5.5C4.125 6.95869 4.70446 8.35764 5.73591 9.38909C6.76736 10.4205 8.16631 11 9.625 11ZM5.5 13.3719C2.32031 14.3043 0 17.2434 0 20.7238C0 21.4285 0.571484 22 1.27617 22H17.9738C18.6785 22 19.25 21.4285 19.25 20.7238C19.25 17.2434 16.9297 14.3043 13.75 13.3719V15.5547C14.9359 15.8598 15.8125 16.9383 15.8125 18.2188V19.9375C15.8125 20.3156 15.5031 20.625 15.125 20.625H14.4375C14.0594 20.625 13.75 20.3156 13.75 19.9375C13.75 19.5594 14.0594 19.25 14.4375 19.25V18.2188C14.4375 17.4582 13.823 16.8438 13.0625 16.8438C12.302 16.8438 11.6875 17.4582 11.6875 18.2188V19.25C12.0656 19.25 12.375 19.5594 12.375 19.9375C12.375 20.3156 12.0656 20.625 11.6875 20.625H11C10.6219 20.625 10.3125 20.3156 10.3125 19.9375V18.2188C10.3125 16.9383 11.1891 15.8598 12.375 15.5547V13.1012C12.1172 13.0754 11.8551 13.0625 11.5887 13.0625H7.66133C7.39492 13.0625 7.13281 13.0754 6.875 13.1012V15.9113C7.86758 16.2078 8.59375 17.1273 8.59375 18.2188C8.59375 19.5465 7.51523 20.625 6.1875 20.625C4.85977 20.625 3.78125 19.5465 3.78125 18.2188C3.78125 17.1273 4.50742 16.2078 5.5 15.9113V13.3719ZM6.1875 19.25C6.461 19.25 6.72331 19.1414 6.9167 18.948C7.1101 18.7546 7.21875 18.4923 7.21875 18.2188C7.21875 17.9452 7.1101 17.6829 6.9167 17.4895C6.72331 17.2961 6.461 17.1875 6.1875 17.1875C5.914 17.1875 5.65169 17.2961 5.4583 17.4895C5.2649 17.6829 5.15625 17.9452 5.15625 18.2188C5.15625 18.4923 5.2649 18.7546 5.4583 18.948C5.65169 19.1414 5.914 19.25 6.1875 19.25Z" fill="#373C9E"/>
<path d="M13.75 15.5547V13.3719L12.375 13.1012V15.5547C11.1891 15.8598 10.3125 16.9383 10.3125 18.2188V19.9375C10.3125 20.3156 10.6219 20.625 11 20.625H11.6875C12.0656 20.625 12.375 20.3156 12.375 19.9375C12.375 19.5594 12.0656 19.25 11.6875 19.25V18.2188C11.6875 17.4582 12.302 16.8438 13.0625 16.8438C13.823 16.8438 14.4375 17.4582 14.4375 18.2188V19.25C14.0594 19.25 13.75 19.5594 13.75 19.9375C13.75 20.3156 14.0594 20.625 14.4375 20.625H15.125C15.5031 20.625 15.8125 20.3156 15.8125 19.9375V18.2188C15.8125 16.9383 14.9359 15.8598 13.75 15.5547Z" fill="#90E5EE"/>
<path fill-rule="evenodd" clip-rule="evenodd" d="M6.875 15.9113V13.1012L5.5 13.3719V15.9113C4.50742 16.2078 3.78125 17.1273 3.78125 18.2188C3.78125 19.5465 4.85977 20.625 6.1875 20.625C7.51523 20.625 8.59375 19.5465 8.59375 18.2188C8.59375 17.1273 7.86758 16.2078 6.875 15.9113ZM6.9167 18.948C6.72331 19.1414 6.461 19.25 6.1875 19.25C5.914 19.25 5.65169 19.1414 5.4583 18.948C5.2649 18.7546 5.15625 18.4923 5.15625 18.2188C5.15625 17.9452 5.2649 17.6829 5.4583 17.4895C5.65169 17.2961 5.914 17.1875 6.1875 17.1875C6.461 17.1875 6.72331 17.2961 6.9167 17.4895C7.1101 17.6829 7.21875 17.9452 7.21875 18.2188C7.21875 18.4923 7.1101 18.7546 6.9167 18.948Z" fill="#90E5EE"/>
</svg>
