<svg width="22" height="28" viewBox="0 0 22 28" fill="none" xmlns="http://www.w3.org/2000/svg">
<g clip-path="url(#clip0_420_3418)">
<path d="M5.51544 6.8C5.51544 4.148 7.86481 2 10.7654 2C13.666 2 16.0154 4.148 16.0154 6.8C16.0154 9.452 13.666 11.6 10.7654 11.6C7.86481 11.6 5.51544 9.452 5.51544 6.8ZM17.3279 26H18.6404C20.0841 26 21.2654 24.92 21.2654 23.6V17.864C21.2654 16.52 20.4648 15.284 19.1523 14.672C18.5879 14.408 17.9841 14.156 17.3279 13.928V26ZM11.2117 20L14.7029 13.196C13.4823 12.944 12.1698 12.8 10.7654 12.8C7.44481 12.8 4.58357 13.64 2.37858 14.672C1.73816 14.9736 1.20167 15.4315 0.828657 15.995C0.455644 16.5584 0.260701 17.2054 0.265466 17.864V26H3.3367C3.04796 25.46 2.89046 24.848 2.89046 24.2C2.89046 21.884 4.95107 20 7.48419 20H11.2117ZM8.14043 26L9.99105 22.4H7.48419C6.39482 22.4 5.51544 23.204 5.51544 24.2C5.51544 25.196 6.39482 26 7.48419 26H8.14043Z" fill="#18181B"/>
</g>
<defs>
<clipPath id="clip0_420_3418">
<rect width="21" height="28" fill="white" transform="translate(0.265381)"/>
</clipPath>
</defs>
</svg>
