<svg width="20" height="16" viewBox="0 0 20 16" fill="none" xmlns="http://www.w3.org/2000/svg">
<path d="M14.375 8H15.625V6.58333L16.8542 7.29167L17.4792 6.20833L16.25 5.5L17.4792 4.79167L16.8542 3.70833L15.625 4.41667V3H14.375V4.41667L13.1458 3.70833L12.5208 4.79167L13.75 5.5L12.5208 6.20833L13.1458 7.29167L14.375 6.58333V8ZM1.66667 15.5C1.20833 15.5 0.816111 15.3369 0.49 15.0108C0.163889 14.6847 0.000555556 14.2922 0 13.8333V2.16667C0 1.70833 0.163333 1.31611 0.49 0.99C0.816667 0.663889 1.20889 0.500556 1.66667 0.5H18.3333C18.7917 0.5 19.1842 0.663333 19.5108 0.99C19.8375 1.31667 20.0006 1.70889 20 2.16667V13.8333C20 14.2917 19.8369 14.6842 19.5108 15.0108C19.1847 15.3375 18.7922 15.5006 18.3333 15.5H1.66667ZM7.5 9.66667C8.19444 9.66667 8.78472 9.42361 9.27083 8.9375C9.75694 8.45139 10 7.86111 10 7.16667C10 6.47222 9.75694 5.88194 9.27083 5.39583C8.78472 4.90972 8.19444 4.66667 7.5 4.66667C6.80556 4.66667 6.21528 4.90972 5.72917 5.39583C5.24306 5.88194 5 6.47222 5 7.16667C5 7.86111 5.24306 8.45139 5.72917 8.9375C6.21528 9.42361 6.80556 9.66667 7.5 9.66667ZM1.75 13.8333H13.25C12.6667 12.7917 11.8611 11.9758 10.8333 11.3858C9.80556 10.7958 8.69444 10.5006 7.5 10.5C6.30556 10.4994 5.19444 10.7947 4.16667 11.3858C3.13889 11.9769 2.33333 12.7928 1.75 13.8333Z" fill="#3C3C3C"/>
</svg>
